<svg width="25" height="25" viewBox="0 0 25 25" fill="none" xmlns="http://www.w3.org/2000/svg">
<path d="M8.34327 2.854H16.7433C19.9433 2.854 22.5433 5.454 22.5433 8.654V17.054C22.5433 18.5923 21.9322 20.0675 20.8445 21.1552C19.7568 22.2429 18.2815 22.854 16.7433 22.854H8.34327C5.14327 22.854 2.54327 20.254 2.54327 17.054V8.654C2.54327 7.11575 3.15434 5.6405 4.24205 4.55278C5.32977 3.46507 6.80502 2.854 8.34327 2.854ZM8.14327 4.854C7.18849 4.854 6.27282 5.23329 5.59769 5.90842C4.92256 6.58355 4.54327 7.49922 4.54327 8.454V17.254C4.54327 19.244 6.15327 20.854 8.14327 20.854H16.9433C17.8981 20.854 18.8137 20.4747 19.4889 19.7996C20.164 19.1245 20.5433 18.2088 20.5433 17.254V8.454C20.5433 6.464 18.9333 4.854 16.9433 4.854H8.14327ZM17.7933 6.354C18.1248 6.354 18.4427 6.4857 18.6772 6.72012C18.9116 6.95454 19.0433 7.27248 19.0433 7.604C19.0433 7.93552 18.9116 8.25347 18.6772 8.48789C18.4427 8.72231 18.1248 8.854 17.7933 8.854C17.4618 8.854 17.1438 8.72231 16.9094 8.48789C16.675 8.25347 16.5433 7.93552 16.5433 7.604C16.5433 7.27248 16.675 6.95454 16.9094 6.72012C17.1438 6.4857 17.4618 6.354 17.7933 6.354ZM12.5433 7.854C13.8694 7.854 15.1411 8.38079 16.0788 9.31847C17.0165 10.2562 17.5433 11.5279 17.5433 12.854C17.5433 14.1801 17.0165 15.4519 16.0788 16.3895C15.1411 17.3272 13.8694 17.854 12.5433 17.854C11.2172 17.854 9.94542 17.3272 9.00774 16.3895C8.07006 15.4519 7.54327 14.1801 7.54327 12.854C7.54327 11.5279 8.07006 10.2562 9.00774 9.31847C9.94542 8.38079 11.2172 7.854 12.5433 7.854ZM12.5433 9.854C11.7476 9.854 10.9846 10.1701 10.422 10.7327C9.85934 11.2953 9.54327 12.0584 9.54327 12.854C9.54327 13.6497 9.85934 14.4127 10.422 14.9753C10.9846 15.5379 11.7476 15.854 12.5433 15.854C13.3389 15.854 14.102 15.5379 14.6646 14.9753C15.2272 14.4127 15.5433 13.6497 15.5433 12.854C15.5433 12.0584 15.2272 11.2953 14.6646 10.7327C14.102 10.1701 13.3389 9.854 12.5433 9.854Z" fill="white"/>
</svg>
