<svg width="101" height="29" viewBox="0 0 101 29" fill="none" xmlns="http://www.w3.org/2000/svg">
<path d="M4.305 0.457411C4.625 0.457411 4.915 0.482411 5.175 0.532411C5.445 0.572411 5.68 0.627412 5.88 0.697412L7.29 0.412412V3.47241C6.57 3.45241 5.99 3.24741 5.55 2.85741C5.11 2.46741 4.855 1.93241 4.785 1.25241C4.585 1.21241 4.35 1.19241 4.08 1.19241C3.98 1.19241 3.895 1.19741 3.825 1.20741C3.765 1.21741 3.71 1.22741 3.66 1.23741L3.51 1.26741C3.47 1.34741 3.435 1.44241 3.405 1.55241C3.385 1.64241 3.365 1.75241 3.345 1.88241C3.325 2.00241 3.315 2.13741 3.315 2.28741C3.315 2.81741 3.43 3.20741 3.66 3.45741C3.9 3.70741 4.285 3.91741 4.815 4.08741C5.125 4.19741 5.445 4.33741 5.775 4.50741C6.105 4.66741 6.405 4.86741 6.675 5.10741C6.955 5.34741 7.18 5.63241 7.35 5.96241C7.53 6.28241 7.62 6.64741 7.62 7.05741C7.62 8.09741 7.3 8.86241 6.66 9.35241C6.02 9.83241 5.125 10.0724 3.975 10.0724C3.485 10.0724 3.095 10.0424 2.805 9.98241C2.515 9.93241 2.29 9.88241 2.13 9.83241L0.87 10.0724V6.71241C1.26 6.72241 1.605 6.79741 1.905 6.93741C2.205 7.06741 2.46 7.24741 2.67 7.47741C2.88 7.70741 3.045 7.97741 3.165 8.28741C3.285 8.59741 3.355 8.93741 3.375 9.30741C3.455 9.31741 3.53 9.32241 3.6 9.32241H3.855C3.955 9.32241 4.06 9.32241 4.17 9.32241C4.29 9.31241 4.4 9.30241 4.5 9.29241C4.61 9.28241 4.725 9.27241 4.845 9.26241C4.875 9.19241 4.905 9.10241 4.935 8.99241C4.955 8.90241 4.975 8.78741 4.995 8.64741C5.015 8.50741 5.025 8.33741 5.025 8.13741C5.025 7.69741 4.92 7.34741 4.71 7.08741C4.5 6.81741 4.235 6.58741 3.915 6.39741C3.595 6.20741 3.25 6.03241 2.88 5.87241C2.52 5.71241 2.18 5.52241 1.86 5.30241C1.54 5.08241 1.275 4.80741 1.065 4.47741C0.855 4.14741 0.75 3.71741 0.75 3.18741C0.75 2.79741 0.81 2.43741 0.93 2.10741C1.05 1.77741 1.245 1.49241 1.515 1.25241C1.795 1.00241 2.16 0.807411 2.61 0.667411C3.07 0.527411 3.635 0.457411 4.305 0.457411ZM15.011 9.09741H15.206C15.296 9.09741 15.386 9.09241 15.476 9.08241L15.806 9.05241V9.77241C15.626 9.80241 15.451 9.82741 15.281 9.84741C15.141 9.86741 14.991 9.88241 14.831 9.89241C14.671 9.90241 14.541 9.90741 14.441 9.90741C13.951 9.90741 13.581 9.81741 13.331 9.63741C13.081 9.45741 12.901 9.26241 12.791 9.05241C12.571 9.33241 12.316 9.55741 12.026 9.72741C11.746 9.88741 11.421 9.96741 11.051 9.96741C10.371 9.96741 9.86602 9.84241 9.53602 9.59241C9.20602 9.33241 9.04102 8.88741 9.04102 8.25741C9.04102 8.03741 9.04102 7.82741 9.04102 7.62741C9.05102 7.42741 9.06602 7.25241 9.08602 7.10241C9.10602 6.92241 9.12602 6.76241 9.14602 6.62241L12.626 5.76741C12.616 5.47741 12.606 5.21241 12.596 4.97241C12.586 4.72241 12.576 4.51241 12.566 4.34241C12.546 4.14241 12.531 3.96241 12.521 3.80241C12.491 3.79241 12.446 3.78241 12.386 3.77241C12.336 3.76241 12.261 3.75241 12.161 3.74241C12.061 3.73241 11.941 3.72741 11.801 3.72741C11.711 3.72741 11.626 3.73241 11.546 3.74241C11.466 3.74241 11.386 3.74741 11.306 3.75741C11.276 3.89741 11.226 4.06741 11.156 4.26741C11.086 4.45741 10.976 4.64241 10.826 4.82241C10.676 4.99241 10.476 5.14241 10.226 5.27241C9.98602 5.39241 9.67602 5.45241 9.29602 5.45241V3.18741C9.61602 3.15741 9.94102 3.12741 10.271 3.09741C10.561 3.07741 10.871 3.05741 11.201 3.03741C11.531 3.01741 11.851 3.00741 12.161 3.00741C12.811 3.00741 13.321 3.06241 13.691 3.17241C14.071 3.28241 14.356 3.47241 14.546 3.74241C14.746 4.01241 14.871 4.37241 14.921 4.82241C14.981 5.27241 15.011 5.83241 15.011 6.50241V9.09741ZM11.531 9.15741C11.731 9.10741 11.921 8.98241 12.101 8.78241C12.291 8.57241 12.471 8.32241 12.641 8.03241V6.44241L11.501 6.75741C11.481 6.91741 11.466 7.08241 11.456 7.25241C11.446 7.41241 11.441 7.57241 11.441 7.73241C11.441 7.93241 11.441 8.11741 11.441 8.28741C11.451 8.45741 11.466 8.60741 11.486 8.73741C11.496 8.88741 11.511 9.02741 11.531 9.15741ZM16.4754 3.38241H17.3604L19.6254 2.94741V3.95241C19.6654 3.89241 19.7354 3.80741 19.8354 3.69741C19.9454 3.58741 20.0854 3.48241 20.2554 3.38241C20.4254 3.28241 20.6304 3.19741 20.8704 3.12741C21.1204 3.04741 21.4104 3.00741 21.7404 3.00741C21.9304 3.00741 22.1254 3.02241 22.3254 3.05241C22.5254 3.08241 22.7104 3.13241 22.8804 3.20241C23.0604 3.27241 23.2204 3.36741 23.3604 3.48741C23.5004 3.60741 23.6004 3.76241 23.6604 3.95241C23.6904 3.91241 23.7504 3.84241 23.8404 3.74241C23.9304 3.63241 24.0554 3.52241 24.2154 3.41241C24.3854 3.30241 24.5954 3.20741 24.8454 3.12741C25.0954 3.04741 25.3954 3.00741 25.7454 3.00741C25.9754 3.00741 26.2054 3.02741 26.4354 3.06741C26.6754 3.10741 26.8904 3.18241 27.0804 3.29241C27.2804 3.39241 27.4404 3.53241 27.5604 3.71241C27.6804 3.89241 27.7404 4.12741 27.7404 4.41741V9.08241H28.6254V9.84741H25.3704V3.93741L25.3254 3.92241C25.3054 3.91241 25.2754 3.90741 25.2354 3.90741C25.1954 3.89741 25.1354 3.89241 25.0554 3.89241C24.8854 3.89241 24.7254 3.93741 24.5754 4.02741C24.4354 4.11741 24.3054 4.22241 24.1854 4.34241C24.0754 4.45241 23.9804 4.56741 23.9004 4.68741C23.8204 4.79741 23.7654 4.87741 23.7354 4.92741V9.08241H24.6204V9.84741H21.3654V3.93741L21.3204 3.92241C21.3004 3.91241 21.2704 3.90741 21.2304 3.90741C21.1904 3.89741 21.1304 3.89241 21.0504 3.89241C20.8804 3.89241 20.7204 3.93741 20.5704 4.02741C20.4304 4.11741 20.3004 4.22241 20.1804 4.34241C20.0704 4.45241 19.9754 4.56741 19.8954 4.68741C19.8154 4.79741 19.7604 4.87741 19.7304 4.92741V9.08241H20.6154V9.84741H16.4754V9.08241H17.3604V4.13241H16.4754V3.38241ZM32.5774 3.03741C32.8074 3.03741 33.0174 3.05741 33.2074 3.09741C33.3974 3.12741 33.5674 3.16741 33.7174 3.21741L34.7224 2.99241V5.30241C34.3424 5.30241 34.0274 5.24741 33.7774 5.13741C33.5374 5.01741 33.3424 4.87741 33.1924 4.71741C33.0424 4.54741 32.9274 4.37241 32.8474 4.19241C32.7774 4.00241 32.7274 3.84241 32.6974 3.71241H32.5774C32.4874 3.71241 32.4074 3.71741 32.3374 3.72741C32.2774 3.72741 32.2224 3.73241 32.1724 3.74241C32.1224 3.75241 32.0824 3.76241 32.0524 3.77241C32.0224 3.81241 31.9974 3.86241 31.9774 3.92241C31.9574 3.97241 31.9424 4.04241 31.9324 4.13241C31.9224 4.22241 31.9174 4.32741 31.9174 4.44741C31.9174 4.63741 31.9374 4.79241 31.9774 4.91241C32.0174 5.03241 32.0774 5.13241 32.1574 5.21241C32.2474 5.29241 32.3624 5.35741 32.5024 5.40741C32.6424 5.45741 32.8174 5.51241 33.0274 5.57241C33.2974 5.64241 33.5624 5.73241 33.8224 5.84241C34.0924 5.94241 34.3324 6.07741 34.5424 6.24741C34.7524 6.41741 34.9224 6.63241 35.0524 6.89241C35.1924 7.14241 35.2624 7.44741 35.2624 7.80741C35.2624 8.20741 35.1924 8.54741 35.0524 8.82741C34.9124 9.09741 34.7124 9.31741 34.4524 9.48741C34.2024 9.65741 33.8874 9.77741 33.5074 9.84741C33.1374 9.92741 32.7224 9.96741 32.2624 9.96741C31.8824 9.96741 31.5624 9.94741 31.3024 9.90741C31.0524 9.87741 30.8524 9.83741 30.7024 9.78741L29.6674 10.0124V7.55241C30.0374 7.55241 30.3474 7.61741 30.5974 7.74741C30.8474 7.87741 31.0474 8.03241 31.1974 8.21241C31.3474 8.39241 31.4574 8.58241 31.5274 8.78241C31.5974 8.97241 31.6474 9.13741 31.6774 9.27741C31.7374 9.28741 31.7924 9.29241 31.8424 9.29241H32.2774C32.3674 9.29241 32.4474 9.28741 32.5174 9.27741C32.5974 9.26741 32.6724 9.25741 32.7424 9.24741C32.7624 9.20741 32.7824 9.15241 32.8024 9.08241C32.8224 9.02241 32.8374 8.94241 32.8474 8.84241C32.8674 8.74241 32.8774 8.62241 32.8774 8.48241C32.8774 8.19241 32.7924 7.96241 32.6224 7.79241C32.4624 7.62241 32.2574 7.48241 32.0074 7.37241C31.7574 7.25241 31.4874 7.14241 31.1974 7.04241C30.9174 6.93241 30.6524 6.80241 30.4024 6.65241C30.1524 6.49241 29.9424 6.28741 29.7724 6.03741C29.6124 5.77741 29.5324 5.43241 29.5324 5.00241C29.5324 4.70241 29.5824 4.43241 29.6824 4.19241C29.7924 3.94241 29.9624 3.73241 30.1924 3.56241C30.4324 3.39241 30.7474 3.26241 31.1374 3.17241C31.5274 3.08241 32.0074 3.03741 32.5774 3.03741ZM35.9379 3.38241H36.8229L39.0879 2.94741V9.02241C39.1079 9.03241 39.1379 9.04241 39.1779 9.05241C39.2179 9.06241 39.3279 9.06741 39.5079 9.06741C39.7179 9.06741 39.9029 9.02741 40.0629 8.94741C40.2229 8.85741 40.3629 8.75741 40.4829 8.64741C40.6029 8.53741 40.7029 8.42741 40.7829 8.31741C40.8629 8.20741 40.9179 8.12241 40.9479 8.06241V3.11241H43.3179V9.09741H43.5129C43.6029 9.09741 43.6929 9.09241 43.7829 9.08241L44.1129 9.05241V9.77241C43.9329 9.80241 43.7579 9.82741 43.5879 9.84741C43.4479 9.86741 43.2979 9.88241 43.1379 9.89241C42.9779 9.90241 42.8479 9.90741 42.7479 9.90741C42.4879 9.90741 42.2629 9.88241 42.0729 9.83241C41.8829 9.77241 41.7179 9.69741 41.5779 9.60741C41.4479 9.51741 41.3379 9.41741 41.2479 9.30741C41.1579 9.18741 41.0929 9.07241 41.0529 8.96241C41.0329 8.99241 40.9779 9.06241 40.8879 9.17241C40.7979 9.28241 40.6579 9.39741 40.4679 9.51741C40.2879 9.62741 40.0529 9.72741 39.7629 9.81741C39.4829 9.90741 39.1329 9.95241 38.7129 9.95241C38.4829 9.95241 38.2479 9.93241 38.0079 9.89241C37.7779 9.85241 37.5629 9.78241 37.3629 9.68241C37.1729 9.57241 37.0179 9.42741 36.8979 9.24741C36.7779 9.06741 36.7179 8.83241 36.7179 8.54241V4.13241H35.9379V3.38241ZM44.8641 3.38241H45.7491L48.0141 2.94741V3.99741C48.0341 3.96741 48.0891 3.89741 48.1791 3.78741C48.2691 3.67741 48.4041 3.56741 48.5841 3.45741C48.7641 3.33741 48.9991 3.23241 49.2891 3.14241C49.5791 3.05241 49.9341 3.00741 50.3541 3.00741C50.5841 3.00741 50.8141 3.02741 51.0441 3.06741C51.2841 3.10741 51.4991 3.18241 51.6891 3.29241C51.8891 3.39241 52.0491 3.53241 52.1691 3.71241C52.2891 3.89241 52.3491 4.12741 52.3491 4.41741V9.08241H53.2341V9.84741H49.9791V3.93741C49.9591 3.93741 49.9291 3.93241 49.8891 3.92241C49.8091 3.90241 49.6991 3.89241 49.5591 3.89241C49.3491 3.89241 49.1591 3.93741 48.9891 4.02741C48.8291 4.10741 48.6891 4.20241 48.5691 4.31241C48.4491 4.42241 48.3491 4.53741 48.2691 4.65741C48.1991 4.76741 48.1491 4.85241 48.1191 4.91241V9.08241H49.0041V9.84741H44.8641V9.08241H45.7491V4.13241H44.8641V3.38241ZM59.1071 11.5574H59.7071C60.0371 11.5574 60.2421 11.5224 60.3221 11.4524C60.4121 11.3924 60.4571 11.2824 60.4571 11.1224V10.8974H56.6021C56.1221 10.8974 55.7171 10.8574 55.3871 10.7774C55.0571 10.7074 54.7921 10.5924 54.5921 10.4324C54.4021 10.2824 54.2621 10.0874 54.1721 9.84741C54.0921 9.59741 54.0521 9.30241 54.0521 8.96241C54.0521 8.70241 54.0871 8.47741 54.1571 8.28741C54.2271 8.09741 54.3121 7.93741 54.4121 7.80741C54.5221 7.67741 54.6371 7.57241 54.7571 7.49241C54.8871 7.41241 55.0071 7.35241 55.1171 7.31241C54.7971 7.13241 54.5671 6.88741 54.4271 6.57741C54.2971 6.25741 54.2321 5.85741 54.2321 5.37741C54.2321 4.94741 54.2871 4.58241 54.3971 4.28241C54.5171 3.97241 54.7071 3.72741 54.9671 3.54741C55.2271 3.35741 55.5671 3.22241 55.9871 3.14241C56.4071 3.05241 56.9221 3.00741 57.5321 3.00741H59.3321C59.5821 3.00741 59.7771 2.98741 59.9171 2.94741C60.0671 2.90741 60.1771 2.84741 60.2471 2.76741C60.3171 2.67741 60.3571 2.57241 60.3671 2.45241C60.3871 2.32241 60.3971 2.16741 60.3971 1.98741H61.2071C61.2071 2.52741 61.1221 2.91741 60.9521 3.15741C60.7821 3.39741 60.5371 3.56241 60.2171 3.65241C60.6271 4.02241 60.8321 4.59741 60.8321 5.37741C60.8321 5.81741 60.7721 6.18741 60.6521 6.48741C60.5421 6.78741 60.3571 7.03241 60.0971 7.22241C59.8371 7.40241 59.4971 7.53741 59.0771 7.62741C58.6571 7.70741 58.1421 7.74741 57.5321 7.74741C56.8821 7.74741 56.3421 7.70241 55.9121 7.61241C55.7921 7.64241 55.6671 7.68741 55.5371 7.74741C55.4171 7.79741 55.3021 7.86741 55.1921 7.95741C55.0821 8.03741 54.9921 8.13241 54.9221 8.24241C54.8521 8.35241 54.8171 8.47741 54.8171 8.61741H59.1671C59.9971 8.61741 60.5821 8.77241 60.9221 9.08241C61.2721 9.38241 61.4471 9.85241 61.4471 10.4924C61.4471 10.8124 61.4221 11.0874 61.3721 11.3174C61.3221 11.5474 61.2321 11.7374 61.1021 11.8874C60.9821 12.0374 60.8071 12.1474 60.5771 12.2174C60.3471 12.2974 60.0521 12.3374 59.6921 12.3374H59.1071V11.5574ZM56.6921 5.37741C56.6921 5.61741 56.7021 5.83741 56.7221 6.03741C56.7421 6.23741 56.7671 6.40741 56.7971 6.54741C56.8271 6.71741 56.8621 6.87241 56.9021 7.01241C56.9521 7.02241 57.0071 7.03241 57.0671 7.04241C57.1171 7.05241 57.1771 7.06241 57.2471 7.07241C57.3271 7.07241 57.4171 7.07241 57.5171 7.07241C57.6171 7.07241 57.7071 7.07241 57.7871 7.07241C57.8671 7.06241 57.9321 7.05241 57.9821 7.04241C58.0421 7.03241 58.0971 7.02241 58.1471 7.01241C58.1771 6.87241 58.2121 6.71741 58.2521 6.54741C58.2721 6.40741 58.2921 6.23741 58.3121 6.03741C58.3421 5.83741 58.3571 5.61741 58.3571 5.37741C58.3571 5.14741 58.3421 4.93241 58.3121 4.73241C58.2921 4.52241 58.2721 4.34741 58.2521 4.20741C58.2121 4.03741 58.1771 3.88241 58.1471 3.74241L57.9671 3.71241C57.9171 3.70241 57.8521 3.69741 57.7721 3.69741C57.6921 3.68741 57.6071 3.68241 57.5171 3.68241C57.4171 3.68241 57.3271 3.68741 57.2471 3.69741C57.1771 3.69741 57.1171 3.70241 57.0671 3.71241C57.0071 3.72241 56.9521 3.73241 56.9021 3.74241C56.8621 3.88241 56.8271 4.03741 56.7971 4.20741C56.7671 4.34741 56.7421 4.52241 56.7221 4.73241C56.7021 4.93241 56.6921 5.14741 56.6921 5.37741ZM68.2308 0.457411C68.5508 0.457411 68.8408 0.482411 69.1008 0.532411C69.3708 0.572411 69.6058 0.627412 69.8058 0.697412L71.2158 0.412412V3.47241C70.4958 3.45241 69.9158 3.24741 69.4758 2.85741C69.0358 2.46741 68.7808 1.93241 68.7108 1.25241C68.5108 1.21241 68.2758 1.19241 68.0058 1.19241C67.9058 1.19241 67.8208 1.19741 67.7508 1.20741C67.6908 1.21741 67.6358 1.22741 67.5858 1.23741L67.4358 1.26741C67.3958 1.34741 67.3608 1.44241 67.3308 1.55241C67.3108 1.64241 67.2908 1.75241 67.2708 1.88241C67.2508 2.00241 67.2408 2.13741 67.2408 2.28741C67.2408 2.81741 67.3558 3.20741 67.5858 3.45741C67.8258 3.70741 68.2108 3.91741 68.7408 4.08741C69.0508 4.19741 69.3708 4.33741 69.7008 4.50741C70.0308 4.66741 70.3308 4.86741 70.6008 5.10741C70.8808 5.34741 71.1058 5.63241 71.2758 5.96241C71.4558 6.28241 71.5458 6.64741 71.5458 7.05741C71.5458 8.09741 71.2258 8.86241 70.5858 9.35241C69.9458 9.83241 69.0508 10.0724 67.9008 10.0724C67.4108 10.0724 67.0208 10.0424 66.7308 9.98241C66.4408 9.93241 66.2158 9.88241 66.0558 9.83241L64.7958 10.0724V6.71241C65.1858 6.72241 65.5308 6.79741 65.8308 6.93741C66.1308 7.06741 66.3858 7.24741 66.5958 7.47741C66.8058 7.70741 66.9708 7.97741 67.0908 8.28741C67.2108 8.59741 67.2808 8.93741 67.3008 9.30741C67.3808 9.31741 67.4558 9.32241 67.5258 9.32241H67.7808C67.8808 9.32241 67.9858 9.32241 68.0958 9.32241C68.2158 9.31241 68.3258 9.30241 68.4258 9.29241C68.5358 9.28241 68.6508 9.27241 68.7708 9.26241C68.8008 9.19241 68.8308 9.10241 68.8608 8.99241C68.8808 8.90241 68.9008 8.78741 68.9208 8.64741C68.9408 8.50741 68.9508 8.33741 68.9508 8.13741C68.9508 7.69741 68.8458 7.34741 68.6358 7.08741C68.4258 6.81741 68.1608 6.58741 67.8408 6.39741C67.5208 6.20741 67.1758 6.03241 66.8058 5.87241C66.4458 5.71241 66.1058 5.52241 65.7858 5.30241C65.4658 5.08241 65.2008 4.80741 64.9908 4.47741C64.7808 4.14741 64.6758 3.71741 64.6758 3.18741C64.6758 2.79741 64.7358 2.43741 64.8558 2.10741C64.9758 1.77741 65.1708 1.49241 65.4408 1.25241C65.7208 1.00241 66.0858 0.807411 66.5358 0.667411C66.9958 0.527411 67.5608 0.457411 68.2308 0.457411ZM73.1918 2.42241L75.5618 1.77741V3.11241H77.3618V3.86241H75.5618V9.09741H75.8768C76.4568 9.09741 76.7468 8.65741 76.7468 7.77741H77.5118C77.5118 8.09741 77.4918 8.38741 77.4518 8.64741C77.4218 8.90741 77.3268 9.13241 77.1668 9.32241C77.0168 9.51241 76.7868 9.65741 76.4768 9.75741C76.1768 9.85741 75.7568 9.90741 75.2168 9.90741C74.8468 9.90741 74.5318 9.86741 74.2718 9.78741C74.0118 9.69741 73.8018 9.58241 73.6418 9.44241C73.4818 9.30241 73.3668 9.14741 73.2968 8.97741C73.2268 8.80741 73.1918 8.63241 73.1918 8.45241V2.42241ZM80.7243 6.50241C80.7243 6.89241 80.7343 7.25741 80.7543 7.59741C80.7843 7.92741 80.8193 8.21241 80.8593 8.45241C80.8993 8.74241 80.9443 9.00241 80.9943 9.23241C81.0443 9.25241 81.1093 9.26741 81.1893 9.27741C81.3193 9.30741 81.5093 9.32241 81.7593 9.32241C81.9993 9.32241 82.1893 9.30741 82.3293 9.27741C82.4093 9.26741 82.4743 9.25241 82.5243 9.23241C82.5743 9.00241 82.6193 8.74241 82.6593 8.45241C82.6893 8.21241 82.7193 7.92741 82.7493 7.59741C82.7793 7.25741 82.7943 6.89241 82.7943 6.50241C82.7943 6.11241 82.7793 5.75241 82.7493 5.42241C82.7193 5.09241 82.6893 4.80241 82.6593 4.55241C82.6193 4.27241 82.5743 4.01241 82.5243 3.77241C82.4643 3.76241 82.3943 3.74741 82.3143 3.72741C82.2443 3.71741 82.1593 3.70741 82.0593 3.69741C81.9693 3.68741 81.8693 3.68241 81.7593 3.68241C81.6293 3.68241 81.5193 3.68741 81.4293 3.69741C81.3393 3.70741 81.2593 3.71741 81.1893 3.72741C81.1093 3.74741 81.0443 3.76241 80.9943 3.77241C80.9443 4.01241 80.8993 4.27241 80.8593 4.55241C80.8193 4.80241 80.7843 5.09241 80.7543 5.42241C80.7343 5.75241 80.7243 6.11241 80.7243 6.50241ZM78.2643 6.50241C78.2643 5.86241 78.3243 5.32241 78.4443 4.88241C78.5643 4.43241 78.7643 4.07241 79.0443 3.80241C79.3243 3.52241 79.6843 3.32241 80.1243 3.20241C80.5643 3.07241 81.1093 3.00741 81.7593 3.00741C82.3993 3.00741 82.9393 3.07241 83.3793 3.20241C83.8293 3.32241 84.1943 3.52241 84.4743 3.80241C84.7543 4.07241 84.9543 4.43241 85.0743 4.88241C85.1943 5.32241 85.2543 5.86241 85.2543 6.50241C85.2543 7.14241 85.1943 7.68741 85.0743 8.13741C84.9543 8.57741 84.7543 8.93741 84.4743 9.21741C84.1943 9.48741 83.8293 9.68741 83.3793 9.81741C82.9393 9.93741 82.3993 9.99741 81.7593 9.99741C81.1093 9.99741 80.5643 9.93741 80.1243 9.81741C79.6843 9.68741 79.3243 9.48741 79.0443 9.21741C78.7643 8.93741 78.5643 8.57741 78.4443 8.13741C78.3243 7.68741 78.2643 7.14241 78.2643 6.50241ZM85.4098 3.11241H88.5448L90.4798 6.96741L91.8298 3.87741H90.6298V3.11241H93.7498V3.87741H92.6998L89.9398 10.2974H89.6248L86.2198 3.87741H85.4098V3.11241ZM97.3138 3.00741C97.8638 3.00741 98.3188 3.06241 98.6788 3.17241C99.0388 3.27241 99.3288 3.43741 99.5488 3.66741C99.7688 3.89741 99.9238 4.20241 100.014 4.58241C100.104 4.95241 100.149 5.41241 100.149 5.96241C100.149 6.13241 100.144 6.28241 100.134 6.41241C100.124 6.53241 100.114 6.63241 100.104 6.71241C100.094 6.81241 100.084 6.88741 100.074 6.93741H96.3688C96.3788 7.27741 96.3988 7.58741 96.4288 7.86741C96.4588 8.13741 96.4888 8.37241 96.5188 8.57241C96.5588 8.81241 96.5988 9.02241 96.6388 9.20241C96.6688 9.22241 96.7138 9.23741 96.7738 9.24741C96.8238 9.25741 96.8938 9.26741 96.9838 9.27741C97.0838 9.27741 97.2088 9.27741 97.3588 9.27741C97.6088 9.27741 97.8438 9.26241 98.0638 9.23241C98.2938 9.19241 98.4938 9.13241 98.6638 9.05241C98.8338 8.97241 98.9638 8.86241 99.0538 8.72241C99.1538 8.57241 99.2038 8.39241 99.2038 8.18241H100.014C100.014 8.60241 99.9188 8.93241 99.7288 9.17241C99.5488 9.41241 99.3188 9.59741 99.0388 9.72741C98.7688 9.84741 98.4738 9.92241 98.1538 9.95241C97.8338 9.98241 97.5338 9.99741 97.2538 9.99741C96.6438 9.99741 96.1238 9.93741 95.6938 9.81741C95.2738 9.68741 94.9288 9.48741 94.6588 9.21741C94.3988 8.93741 94.2088 8.57741 94.0888 8.13741C93.9688 7.68741 93.9088 7.14241 93.9088 6.50241C93.9088 5.86241 93.9588 5.32241 94.0588 4.88241C94.1688 4.43241 94.3538 4.07241 94.6138 3.80241C94.8738 3.52241 95.2188 3.32241 95.6488 3.20241C96.0888 3.07241 96.6438 3.00741 97.3138 3.00741ZM96.6388 3.77241C96.5888 3.99241 96.5438 4.23241 96.5038 4.49241C96.4738 4.72241 96.4438 4.99241 96.4138 5.30241C96.3838 5.60241 96.3688 5.93241 96.3688 6.29241H97.8238C97.8038 5.87241 97.7788 5.50741 97.7488 5.19741C97.7188 4.87741 97.6838 4.61241 97.6438 4.40241C97.6038 4.15241 97.5588 3.94241 97.5088 3.77241C97.4788 3.76241 97.4438 3.74741 97.4038 3.72741C97.3638 3.71741 97.3138 3.70741 97.2538 3.69741C97.2038 3.68741 97.1438 3.68241 97.0738 3.68241C97.0038 3.68241 96.9438 3.68741 96.8938 3.69741C96.8438 3.70741 96.7988 3.71741 96.7588 3.72741C96.7188 3.74741 96.6788 3.76241 96.6388 3.77241ZM13.8787 16.6224V19.4574C13.3887 19.4574 12.9937 19.3874 12.6937 19.2474C12.4037 19.0974 12.1737 18.9224 12.0037 18.7224C11.8437 18.5224 11.7337 18.3124 11.6737 18.0924C11.6137 17.8624 11.5787 17.6624 11.5687 17.4924H10.7287V24.9774H12.0637V25.8474H6.87369V24.9774H8.20869V17.4924H7.35369C7.34369 17.6624 7.30869 17.8624 7.24869 18.0924C7.19869 18.3124 7.08869 18.5224 6.91869 18.7224C6.75869 18.9224 6.52869 19.0974 6.22869 19.2474C5.92869 19.3874 5.53869 19.4574 5.05869 19.4574V16.6224H13.8787ZM16.4982 22.5024C16.4982 22.8924 16.5082 23.2574 16.5282 23.5974C16.5582 23.9274 16.5932 24.2124 16.6332 24.4524C16.6732 24.7424 16.7182 25.0024 16.7682 25.2324C16.8182 25.2524 16.8832 25.2674 16.9632 25.2774C17.0932 25.3074 17.2832 25.3224 17.5332 25.3224C17.7732 25.3224 17.9632 25.3074 18.1032 25.2774C18.1832 25.2674 18.2482 25.2524 18.2982 25.2324C18.3482 25.0024 18.3932 24.7424 18.4332 24.4524C18.4632 24.2124 18.4932 23.9274 18.5232 23.5974C18.5532 23.2574 18.5682 22.8924 18.5682 22.5024C18.5682 22.1124 18.5532 21.7524 18.5232 21.4224C18.4932 21.0924 18.4632 20.8024 18.4332 20.5524C18.3932 20.2724 18.3482 20.0124 18.2982 19.7724C18.2382 19.7624 18.1682 19.7474 18.0882 19.7274C18.0182 19.7174 17.9332 19.7074 17.8332 19.6974C17.7432 19.6874 17.6432 19.6824 17.5332 19.6824C17.4032 19.6824 17.2932 19.6874 17.2032 19.6974C17.1132 19.7074 17.0332 19.7174 16.9632 19.7274C16.8832 19.7474 16.8182 19.7624 16.7682 19.7724C16.7182 20.0124 16.6732 20.2724 16.6332 20.5524C16.5932 20.8024 16.5582 21.0924 16.5282 21.4224C16.5082 21.7524 16.4982 22.1124 16.4982 22.5024ZM14.0382 22.5024C14.0382 21.8624 14.0982 21.3224 14.2182 20.8824C14.3382 20.4324 14.5382 20.0724 14.8182 19.8024C15.0982 19.5224 15.4582 19.3224 15.8982 19.2024C16.3382 19.0724 16.8832 19.0074 17.5332 19.0074C18.1732 19.0074 18.7132 19.0724 19.1532 19.2024C19.6032 19.3224 19.9682 19.5224 20.2482 19.8024C20.5282 20.0724 20.7282 20.4324 20.8482 20.8824C20.9682 21.3224 21.0282 21.8624 21.0282 22.5024C21.0282 23.1424 20.9682 23.6874 20.8482 24.1374C20.7282 24.5774 20.5282 24.9374 20.2482 25.2174C19.9682 25.4874 19.6032 25.6874 19.1532 25.8174C18.7132 25.9374 18.1732 25.9974 17.5332 25.9974C16.8832 25.9974 16.3382 25.9374 15.8982 25.8174C15.4582 25.6874 15.0982 25.4874 14.8182 25.2174C14.5382 24.9374 14.3382 24.5774 14.2182 24.1374C14.0982 23.6874 14.0382 23.1424 14.0382 22.5024ZM21.9302 19.3824H22.8152L25.0802 18.9474V19.8924C25.3702 19.6224 25.6902 19.4124 26.0402 19.2624C26.3902 19.1024 26.7602 19.0224 27.1502 19.0224C27.5602 19.0224 27.9252 19.0874 28.2452 19.2174C28.5652 19.3374 28.8302 19.5374 29.0402 19.8174C29.2602 20.0874 29.4252 20.4474 29.5352 20.8974C29.6452 21.3374 29.7002 21.8724 29.7002 22.5024C29.7002 23.1424 29.6402 23.6874 29.5202 24.1374C29.4002 24.5774 29.2002 24.9374 28.9202 25.2174C28.6402 25.4874 28.2752 25.6824 27.8252 25.8024C27.3852 25.9224 26.8452 25.9824 26.2052 25.9824C26.0252 25.9824 25.8502 25.9724 25.6802 25.9524C25.5102 25.9324 25.3452 25.9124 25.1852 25.8924V28.3224H21.9302V27.5574H22.8152V20.1324H21.9302V19.3824ZM26.9702 19.8324C26.6402 19.8324 26.3202 19.9374 26.0102 20.1474C25.7002 20.3574 25.4252 20.6174 25.1852 20.9274V25.1724C25.3552 25.2224 25.5302 25.2574 25.7102 25.2774C25.8902 25.2974 26.0552 25.3074 26.2052 25.3074C26.4452 25.3074 26.6352 25.2924 26.7752 25.2624C26.8552 25.2524 26.9202 25.2374 26.9702 25.2174C27.0202 24.9874 27.0652 24.7324 27.1052 24.4524C27.1352 24.2124 27.1652 23.9274 27.1952 23.5974C27.2252 23.2574 27.2402 22.8924 27.2402 22.5024C27.2402 22.0224 27.2252 21.6174 27.1952 21.2874C27.1652 20.9474 27.1352 20.6674 27.1052 20.4474C27.0652 20.1874 27.0202 19.9824 26.9702 19.8324ZM36.5444 16.6224C36.6544 16.6224 36.7744 16.6224 36.9044 16.6224C37.0344 16.6124 37.1544 16.6074 37.2644 16.6074C37.3844 16.6074 37.4844 16.6074 37.5644 16.6074C37.6544 16.5974 37.7144 16.5924 37.7444 16.5924C39.0344 16.5924 39.9894 16.8024 40.6094 17.2224C41.2294 17.6424 41.5394 18.3624 41.5394 19.3824C41.5394 20.3924 41.2294 21.1074 40.6094 21.5274C39.9994 21.9474 39.0444 22.1574 37.7444 22.1574H37.3244C37.1744 22.1574 37.0194 22.1524 36.8594 22.1424V24.9774H38.1944V25.8474H33.0044V24.9774H34.3394V17.4924H33.0044V16.6224H36.5444ZM37.7444 17.3574C37.5744 17.3574 37.4144 17.3624 37.2644 17.3724C37.1144 17.3824 36.9794 17.3974 36.8594 17.4174V21.3174C37.1094 21.3474 37.4044 21.3624 37.7444 21.3624C37.9744 21.3624 38.1594 21.3474 38.2994 21.3174C38.3794 21.3074 38.4494 21.2924 38.5094 21.2724C38.5494 21.1324 38.5894 20.9724 38.6294 20.7924C38.6594 20.6324 38.6844 20.4374 38.7044 20.2074C38.7344 19.9674 38.7494 19.6974 38.7494 19.3974C38.7494 19.0874 38.7344 18.8124 38.7044 18.5724C38.6844 18.3324 38.6594 18.1274 38.6294 17.9574C38.5894 17.7674 38.5494 17.5974 38.5094 17.4474C38.4494 17.4374 38.3794 17.4224 38.2994 17.4024C38.2294 17.3924 38.1444 17.3824 38.0444 17.3724C37.9544 17.3624 37.8544 17.3574 37.7444 17.3574ZM42.1321 19.3824H43.0171L45.2821 18.9474V19.9074C45.2921 19.8774 45.3271 19.8174 45.3871 19.7274C45.4571 19.6274 45.5621 19.5274 45.7021 19.4274C45.8521 19.3174 46.0421 19.2224 46.2721 19.1424C46.5121 19.0524 46.8121 19.0074 47.1721 19.0074C47.3921 19.0074 47.5621 19.0124 47.6821 19.0224C47.8121 19.0324 47.9121 19.0424 47.9821 19.0524C48.0621 19.0624 48.1121 19.0724 48.1321 19.0824V21.9774C47.7721 21.9774 47.4721 21.9074 47.2321 21.7674C46.9921 21.6274 46.7971 21.4524 46.6471 21.2424C46.4971 21.0324 46.3821 20.8124 46.3021 20.5824C46.2221 20.3524 46.1671 20.1474 46.1371 19.9674C46.0471 20.0174 45.9621 20.0874 45.8821 20.1774C45.8021 20.2574 45.7271 20.3474 45.6571 20.4474C45.5971 20.5374 45.5421 20.6274 45.4921 20.7174C45.4421 20.7974 45.4071 20.8624 45.3871 20.9124V25.0824H46.2721V25.8474H42.1321V25.0824H43.0171V20.1324H42.1321V19.3824ZM51.3468 22.5024C51.3468 22.8924 51.3568 23.2574 51.3768 23.5974C51.4068 23.9274 51.4418 24.2124 51.4818 24.4524C51.5218 24.7424 51.5668 25.0024 51.6168 25.2324C51.6668 25.2524 51.7318 25.2674 51.8118 25.2774C51.9418 25.3074 52.1318 25.3224 52.3818 25.3224C52.6218 25.3224 52.8118 25.3074 52.9518 25.2774C53.0318 25.2674 53.0968 25.2524 53.1468 25.2324C53.1968 25.0024 53.2418 24.7424 53.2818 24.4524C53.3118 24.2124 53.3418 23.9274 53.3718 23.5974C53.4018 23.2574 53.4168 22.8924 53.4168 22.5024C53.4168 22.1124 53.4018 21.7524 53.3718 21.4224C53.3418 21.0924 53.3118 20.8024 53.2818 20.5524C53.2418 20.2724 53.1968 20.0124 53.1468 19.7724C53.0868 19.7624 53.0168 19.7474 52.9368 19.7274C52.8668 19.7174 52.7818 19.7074 52.6818 19.6974C52.5918 19.6874 52.4918 19.6824 52.3818 19.6824C52.2518 19.6824 52.1418 19.6874 52.0518 19.6974C51.9618 19.7074 51.8818 19.7174 51.8118 19.7274C51.7318 19.7474 51.6668 19.7624 51.6168 19.7724C51.5668 20.0124 51.5218 20.2724 51.4818 20.5524C51.4418 20.8024 51.4068 21.0924 51.3768 21.4224C51.3568 21.7524 51.3468 22.1124 51.3468 22.5024ZM48.8868 22.5024C48.8868 21.8624 48.9468 21.3224 49.0668 20.8824C49.1868 20.4324 49.3868 20.0724 49.6668 19.8024C49.9468 19.5224 50.3068 19.3224 50.7468 19.2024C51.1868 19.0724 51.7318 19.0074 52.3818 19.0074C53.0218 19.0074 53.5618 19.0724 54.0018 19.2024C54.4518 19.3224 54.8168 19.5224 55.0968 19.8024C55.3768 20.0724 55.5768 20.4324 55.6968 20.8824C55.8168 21.3224 55.8768 21.8624 55.8768 22.5024C55.8768 23.1424 55.8168 23.6874 55.6968 24.1374C55.5768 24.5774 55.3768 24.9374 55.0968 25.2174C54.8168 25.4874 54.4518 25.6874 54.0018 25.8174C53.5618 25.9374 53.0218 25.9974 52.3818 25.9974C51.7318 25.9974 51.1868 25.9374 50.7468 25.8174C50.3068 25.6874 49.9468 25.4874 49.6668 25.2174C49.3868 24.9374 49.1868 24.5774 49.0668 24.1374C48.9468 23.6874 48.8868 23.1424 48.8868 22.5024ZM57.3788 18.4224L59.7488 17.7774V19.1124H61.5488V19.8624H59.7488V25.0974H60.0638C60.6438 25.0974 60.9338 24.6574 60.9338 23.7774H61.6988C61.6988 24.0974 61.6788 24.3874 61.6388 24.6474C61.6088 24.9074 61.5138 25.1324 61.3538 25.3224C61.2038 25.5124 60.9738 25.6574 60.6638 25.7574C60.3638 25.8574 59.9438 25.9074 59.4038 25.9074C59.0338 25.9074 58.7188 25.8674 58.4588 25.7874C58.1988 25.6974 57.9888 25.5824 57.8288 25.4424C57.6688 25.3024 57.5538 25.1474 57.4838 24.9774C57.4138 24.8074 57.3788 24.6324 57.3788 24.4524V18.4224ZM65.8563 19.0074C66.4063 19.0074 66.8613 19.0624 67.2213 19.1724C67.5813 19.2724 67.8713 19.4374 68.0913 19.6674C68.3113 19.8974 68.4663 20.2024 68.5563 20.5824C68.6463 20.9524 68.6913 21.4124 68.6913 21.9624C68.6913 22.1324 68.6863 22.2824 68.6763 22.4124C68.6663 22.5324 68.6563 22.6324 68.6463 22.7124C68.6363 22.8124 68.6263 22.8874 68.6163 22.9374H64.9113C64.9213 23.2774 64.9413 23.5874 64.9713 23.8674C65.0013 24.1374 65.0313 24.3724 65.0613 24.5724C65.1013 24.8124 65.1413 25.0224 65.1813 25.2024C65.2113 25.2224 65.2563 25.2374 65.3163 25.2474C65.3663 25.2574 65.4363 25.2674 65.5263 25.2774C65.6263 25.2774 65.7513 25.2774 65.9013 25.2774C66.1513 25.2774 66.3863 25.2624 66.6063 25.2324C66.8363 25.1924 67.0363 25.1324 67.2063 25.0524C67.3763 24.9724 67.5063 24.8624 67.5963 24.7224C67.6963 24.5724 67.7463 24.3924 67.7463 24.1824H68.5563C68.5563 24.6024 68.4613 24.9324 68.2713 25.1724C68.0913 25.4124 67.8613 25.5974 67.5813 25.7274C67.3113 25.8474 67.0163 25.9224 66.6963 25.9524C66.3763 25.9824 66.0763 25.9974 65.7963 25.9974C65.1863 25.9974 64.6663 25.9374 64.2363 25.8174C63.8163 25.6874 63.4713 25.4874 63.2013 25.2174C62.9413 24.9374 62.7513 24.5774 62.6313 24.1374C62.5113 23.6874 62.4513 23.1424 62.4513 22.5024C62.4513 21.8624 62.5013 21.3224 62.6013 20.8824C62.7113 20.4324 62.8963 20.0724 63.1563 19.8024C63.4163 19.5224 63.7613 19.3224 64.1913 19.2024C64.6313 19.0724 65.1863 19.0074 65.8563 19.0074ZM65.1813 19.7724C65.1313 19.9924 65.0863 20.2324 65.0463 20.4924C65.0163 20.7224 64.9863 20.9924 64.9563 21.3024C64.9263 21.6024 64.9113 21.9324 64.9113 22.2924H66.3663C66.3463 21.8724 66.3213 21.5074 66.2913 21.1974C66.2613 20.8774 66.2263 20.6124 66.1863 20.4024C66.1463 20.1524 66.1013 19.9424 66.0513 19.7724C66.0213 19.7624 65.9863 19.7474 65.9463 19.7274C65.9063 19.7174 65.8563 19.7074 65.7963 19.6974C65.7463 19.6874 65.6863 19.6824 65.6163 19.6824C65.5463 19.6824 65.4863 19.6874 65.4363 19.6974C65.3863 19.7074 65.3413 19.7174 65.3013 19.7274C65.2613 19.7474 65.2213 19.7624 65.1813 19.7724ZM75.3112 21.4224C74.8912 21.4224 74.5512 21.3524 74.2912 21.2124C74.0412 21.0624 73.8412 20.8924 73.6912 20.7024C73.5412 20.5124 73.4362 20.3224 73.3762 20.1324C73.3162 19.9324 73.2812 19.7824 73.2712 19.6824H72.9112C72.8412 19.6824 72.7812 19.6874 72.7312 19.6974C72.6812 19.7074 72.6362 19.7174 72.5962 19.7274C72.5562 19.7474 72.5162 19.7624 72.4762 19.7724C72.4262 20.0124 72.3812 20.2724 72.3412 20.5524C72.3012 20.7924 72.2662 21.0824 72.2362 21.4224C72.2162 21.7524 72.2062 22.1124 72.2062 22.5024C72.2062 22.8924 72.2162 23.2524 72.2362 23.5824C72.2662 23.9124 72.3012 24.1974 72.3412 24.4374C72.3812 24.7174 72.4262 24.9724 72.4762 25.2024C72.5162 25.2224 72.5712 25.2374 72.6412 25.2474C72.6912 25.2574 72.7612 25.2674 72.8512 25.2774C72.9412 25.2774 73.0512 25.2774 73.1812 25.2774C73.4012 25.2774 73.6112 25.2574 73.8112 25.2174C74.0112 25.1774 74.1812 25.1074 74.3212 25.0074C74.4712 24.8974 74.5862 24.7524 74.6662 24.5724C74.7562 24.3924 74.8012 24.1624 74.8012 23.8824H75.5212C75.5212 24.3624 75.4412 24.7424 75.2812 25.0224C75.1212 25.3024 74.9162 25.5174 74.6662 25.6674C74.4262 25.8074 74.1612 25.8974 73.8712 25.9374C73.5912 25.9774 73.3312 25.9974 73.0912 25.9974C72.4812 25.9974 71.9612 25.9374 71.5312 25.8174C71.1112 25.6874 70.7662 25.4874 70.4962 25.2174C70.2362 24.9374 70.0462 24.5774 69.9262 24.1374C69.8062 23.6874 69.7462 23.1424 69.7462 22.5024C69.7462 21.8624 69.7962 21.3224 69.8962 20.8824C70.0062 20.4324 70.1912 20.0724 70.4512 19.8024C70.7112 19.5224 71.0562 19.3224 71.4862 19.2024C71.9262 19.0724 72.4812 19.0074 73.1512 19.0074C73.3912 19.0074 73.6362 19.0124 73.8862 19.0224C74.1462 19.0324 74.3812 19.0474 74.5912 19.0674C74.8412 19.0874 75.0812 19.1024 75.3112 19.1124V21.4224ZM76.8759 18.4224L79.2459 17.7774V19.1124H81.0459V19.8624H79.2459V25.0974H79.5609C80.1409 25.0974 80.4309 24.6574 80.4309 23.7774H81.1959C81.1959 24.0974 81.1759 24.3874 81.1359 24.6474C81.1059 24.9074 81.0109 25.1324 80.8509 25.3224C80.7009 25.5124 80.4709 25.6574 80.1609 25.7574C79.8609 25.8574 79.4409 25.9074 78.9009 25.9074C78.5309 25.9074 78.2159 25.8674 77.9559 25.7874C77.6959 25.6974 77.4859 25.5824 77.3259 25.4424C77.1659 25.3024 77.0509 25.1474 76.9809 24.9774C76.9109 24.8074 76.8759 24.6324 76.8759 24.4524V18.4224ZM84.4083 22.5024C84.4083 22.8924 84.4183 23.2574 84.4383 23.5974C84.4683 23.9274 84.5033 24.2124 84.5433 24.4524C84.5833 24.7424 84.6283 25.0024 84.6783 25.2324C84.7283 25.2524 84.7933 25.2674 84.8733 25.2774C85.0033 25.3074 85.1933 25.3224 85.4433 25.3224C85.6833 25.3224 85.8733 25.3074 86.0133 25.2774C86.0933 25.2674 86.1583 25.2524 86.2083 25.2324C86.2583 25.0024 86.3033 24.7424 86.3433 24.4524C86.3733 24.2124 86.4033 23.9274 86.4333 23.5974C86.4633 23.2574 86.4783 22.8924 86.4783 22.5024C86.4783 22.1124 86.4633 21.7524 86.4333 21.4224C86.4033 21.0924 86.3733 20.8024 86.3433 20.5524C86.3033 20.2724 86.2583 20.0124 86.2083 19.7724C86.1483 19.7624 86.0783 19.7474 85.9983 19.7274C85.9283 19.7174 85.8433 19.7074 85.7433 19.6974C85.6533 19.6874 85.5533 19.6824 85.4433 19.6824C85.3133 19.6824 85.2033 19.6874 85.1133 19.6974C85.0233 19.7074 84.9433 19.7174 84.8733 19.7274C84.7933 19.7474 84.7283 19.7624 84.6783 19.7724C84.6283 20.0124 84.5833 20.2724 84.5433 20.5524C84.5033 20.8024 84.4683 21.0924 84.4383 21.4224C84.4183 21.7524 84.4083 22.1124 84.4083 22.5024ZM81.9483 22.5024C81.9483 21.8624 82.0083 21.3224 82.1283 20.8824C82.2483 20.4324 82.4483 20.0724 82.7283 19.8024C83.0083 19.5224 83.3683 19.3224 83.8083 19.2024C84.2483 19.0724 84.7933 19.0074 85.4433 19.0074C86.0833 19.0074 86.6233 19.0724 87.0633 19.2024C87.5133 19.3224 87.8783 19.5224 88.1583 19.8024C88.4383 20.0724 88.6383 20.4324 88.7583 20.8824C88.8783 21.3224 88.9383 21.8624 88.9383 22.5024C88.9383 23.1424 88.8783 23.6874 88.7583 24.1374C88.6383 24.5774 88.4383 24.9374 88.1583 25.2174C87.8783 25.4874 87.5133 25.6874 87.0633 25.8174C86.6233 25.9374 86.0833 25.9974 85.4433 25.9974C84.7933 25.9974 84.2483 25.9374 83.8083 25.8174C83.3683 25.6874 83.0083 25.4874 82.7283 25.2174C82.4483 24.9374 82.2483 24.5774 82.1283 24.1374C82.0083 23.6874 81.9483 23.1424 81.9483 22.5024ZM89.9153 19.3824H90.8003L93.0653 18.9474V19.9074C93.0753 19.8774 93.1103 19.8174 93.1703 19.7274C93.2403 19.6274 93.3453 19.5274 93.4853 19.4274C93.6353 19.3174 93.8253 19.2224 94.0553 19.1424C94.2953 19.0524 94.5953 19.0074 94.9553 19.0074C95.1753 19.0074 95.3453 19.0124 95.4653 19.0224C95.5953 19.0324 95.6953 19.0424 95.7653 19.0524C95.8453 19.0624 95.8953 19.0724 95.9153 19.0824V21.9774C95.5553 21.9774 95.2553 21.9074 95.0153 21.7674C94.7753 21.6274 94.5803 21.4524 94.4303 21.2424C94.2803 21.0324 94.1653 20.8124 94.0853 20.5824C94.0053 20.3524 93.9503 20.1474 93.9203 19.9674C93.8303 20.0174 93.7453 20.0874 93.6653 20.1774C93.5853 20.2574 93.5103 20.3474 93.4403 20.4474C93.3803 20.5374 93.3253 20.6274 93.2753 20.7174C93.2253 20.7974 93.1903 20.8624 93.1703 20.9124V25.0824H94.0553V25.8474H89.9153V25.0824H90.8003V20.1324H89.9153V19.3824Z" fill="black"/>
</svg>
