<svg width="25" height="25" viewBox="0 0 25 25" fill="none" xmlns="http://www.w3.org/2000/svg">
<path d="M9.58327 22.394C10.5433 22.684 11.5133 22.854 12.5433 22.854C15.1954 22.854 17.739 21.8004 19.6143 19.9251C21.4897 18.0497 22.5433 15.5062 22.5433 12.854C22.5433 11.5408 22.2846 10.2404 21.7821 9.02717C21.2795 7.81391 20.5429 6.71152 19.6143 5.78294C18.6858 4.85435 17.5834 4.11776 16.3701 3.61521C15.1569 3.11266 13.8565 2.854 12.5433 2.854C11.2301 2.854 9.9297 3.11266 8.71644 3.61521C7.50318 4.11776 6.40079 4.85435 5.47221 5.78294C3.59684 7.6583 2.54327 10.2018 2.54327 12.854C2.54327 17.104 5.21327 20.754 8.98327 22.194C8.89327 21.414 8.80327 20.124 8.98327 19.234L10.1333 14.294C10.1333 14.294 9.84327 13.714 9.84327 12.794C9.84327 11.414 10.7033 10.384 11.6833 10.384C12.5433 10.384 12.9433 11.014 12.9433 11.824C12.9433 12.684 12.3733 13.914 12.0833 15.094C11.9133 16.074 12.6033 16.934 13.6033 16.934C15.3833 16.934 16.7633 15.034 16.7633 12.354C16.7633 9.954 15.0433 8.314 12.5733 8.314C9.75327 8.314 8.09327 10.414 8.09327 12.624C8.09327 13.484 8.37327 14.354 8.83327 14.924C8.92327 14.984 8.92327 15.064 8.89327 15.214L8.60327 16.304C8.60327 16.474 8.49327 16.534 8.32327 16.414C7.04327 15.854 6.30327 14.034 6.30327 12.564C6.30327 9.404 8.54327 6.534 12.8633 6.534C16.3033 6.534 18.9833 9.004 18.9833 12.284C18.9833 15.724 16.8533 18.484 13.8033 18.484C12.8333 18.484 11.8833 17.964 11.5433 17.354L10.8733 19.724C10.6433 20.584 10.0133 21.734 9.58327 22.424V22.394Z" fill="white"/>
</svg>
