<svg width="171" height="35" viewBox="0 0 171 35" fill="none" xmlns="http://www.w3.org/2000/svg">
<path d="M5.61726 0.479999C6.04393 0.479999 6.43059 0.513332 6.77726 0.579999C7.13726 0.633332 7.45059 0.706666 7.71726 0.8L9.59726 0.42V4.5C8.63726 4.47333 7.86393 4.2 7.27726 3.68C6.69059 3.16 6.35059 2.44667 6.25726 1.54C5.99059 1.48667 5.67726 1.46 5.31726 1.46C5.18393 1.46 5.07059 1.46667 4.97726 1.48C4.89726 1.49333 4.82393 1.50667 4.75726 1.52L4.55726 1.56C4.50393 1.66667 4.45726 1.79333 4.41726 1.94C4.39059 2.06 4.36393 2.20667 4.33726 2.38C4.31059 2.54 4.29726 2.72 4.29726 2.92C4.29726 3.62667 4.45059 4.14667 4.75726 4.48C5.07726 4.81333 5.59059 5.09333 6.29726 5.32C6.71059 5.46667 7.13726 5.65333 7.57726 5.88C8.01726 6.09333 8.41726 6.36 8.77726 6.68C9.15059 7 9.45059 7.38 9.67726 7.82C9.91726 8.24667 10.0373 8.73333 10.0373 9.28C10.0373 10.6667 9.61059 11.6867 8.75726 12.34C7.90393 12.98 6.71059 13.3 5.17726 13.3C4.52393 13.3 4.00393 13.26 3.61726 13.18C3.23059 13.1133 2.93059 13.0467 2.71726 12.98L1.03726 13.3V8.82C1.55726 8.83333 2.01726 8.93333 2.41726 9.12C2.81726 9.29333 3.15726 9.53333 3.43726 9.84C3.71726 10.1467 3.93726 10.5067 4.09726 10.92C4.25726 11.3333 4.35059 11.7867 4.37726 12.28C4.48393 12.2933 4.58393 12.3 4.67726 12.3H5.01726C5.15059 12.3 5.29059 12.3 5.43726 12.3C5.59726 12.2867 5.74393 12.2733 5.87726 12.26C6.02393 12.2467 6.17726 12.2333 6.33726 12.22C6.37726 12.1267 6.41726 12.0067 6.45726 11.86C6.48393 11.74 6.51059 11.5867 6.53726 11.4C6.56393 11.2133 6.57726 10.9867 6.57726 10.72C6.57726 10.1333 6.43726 9.66667 6.15726 9.32C5.87726 8.96 5.52393 8.65333 5.09726 8.4C4.67059 8.14667 4.21059 7.91333 3.71726 7.7C3.23726 7.48667 2.78393 7.23333 2.35726 6.94C1.93059 6.64667 1.57726 6.28 1.29726 5.84C1.01726 5.4 0.877258 4.82667 0.877258 4.12C0.877258 3.6 0.957258 3.12 1.11726 2.68C1.27726 2.24 1.53726 1.86 1.89726 1.54C2.27059 1.20667 2.75726 0.946666 3.35726 0.759999C3.97059 0.573332 4.72393 0.479999 5.61726 0.479999ZM19.8919 12H20.1519C20.2719 12 20.3919 11.9933 20.5119 11.98L20.9519 11.94V12.9C20.7119 12.94 20.4786 12.9733 20.2519 13C20.0653 13.0267 19.8653 13.0467 19.6519 13.06C19.4386 13.0733 19.2653 13.08 19.1319 13.08C18.4786 13.08 17.9853 12.96 17.6519 12.72C17.3186 12.48 17.0786 12.22 16.9319 11.94C16.6386 12.3133 16.2986 12.6133 15.9119 12.84C15.5386 13.0533 15.1053 13.16 14.6119 13.16C13.7053 13.16 13.0319 12.9933 12.5919 12.66C12.1519 12.3133 11.9319 11.72 11.9319 10.88C11.9319 10.5867 11.9319 10.3067 11.9319 10.04C11.9453 9.77333 11.9653 9.54 11.9919 9.34C12.0186 9.1 12.0453 8.88667 12.0719 8.7L16.7119 7.56C16.6986 7.17333 16.6853 6.82 16.6719 6.5C16.6586 6.16667 16.6453 5.88667 16.6319 5.66C16.6053 5.39333 16.5853 5.15333 16.5719 4.94C16.5319 4.92667 16.4719 4.91333 16.3919 4.9C16.3253 4.88667 16.2253 4.87333 16.0919 4.86C15.9586 4.84667 15.7986 4.84 15.6119 4.84C15.4919 4.84 15.3786 4.84667 15.2719 4.86C15.1653 4.86 15.0586 4.86667 14.9519 4.88C14.9119 5.06667 14.8453 5.29333 14.7519 5.56C14.6586 5.81333 14.5119 6.06 14.3119 6.3C14.1119 6.52667 13.8453 6.72667 13.5119 6.9C13.1919 7.06 12.7786 7.14 12.2719 7.14V4.12C12.6986 4.08 13.1319 4.04 13.5719 4C13.9586 3.97333 14.3719 3.94667 14.8119 3.92C15.2519 3.89333 15.6786 3.88 16.0919 3.88C16.9586 3.88 17.6386 3.95333 18.1319 4.1C18.6386 4.24667 19.0186 4.5 19.2719 4.86C19.5386 5.22 19.7053 5.7 19.7719 6.3C19.8519 6.9 19.8919 7.64667 19.8919 8.54V12ZM15.2519 12.08C15.5186 12.0133 15.7719 11.8467 16.0119 11.58C16.2653 11.3 16.5053 10.9667 16.7319 10.58V8.46L15.2119 8.88C15.1853 9.09333 15.1653 9.31333 15.1519 9.54C15.1386 9.75333 15.1319 9.96667 15.1319 10.18C15.1319 10.4467 15.1319 10.6933 15.1319 10.92C15.1453 11.1467 15.1653 11.3467 15.1919 11.52C15.2053 11.72 15.2253 11.9067 15.2519 12.08ZM21.8444 4.38H23.0244L26.0444 3.8V5.14C26.0978 5.06 26.1911 4.94667 26.3244 4.8C26.4711 4.65333 26.6578 4.51333 26.8844 4.38C27.1111 4.24667 27.3844 4.13333 27.7044 4.04C28.0378 3.93333 28.4244 3.88 28.8644 3.88C29.1178 3.88 29.3778 3.9 29.6444 3.94C29.9111 3.98 30.1578 4.04667 30.3844 4.14C30.6244 4.23333 30.8378 4.36 31.0244 4.52C31.2111 4.68 31.3444 4.88667 31.4244 5.14C31.4644 5.08667 31.5444 4.99333 31.6644 4.86C31.7844 4.71333 31.9511 4.56667 32.1644 4.42C32.3911 4.27333 32.6711 4.14667 33.0044 4.04C33.3378 3.93333 33.7378 3.88 34.2044 3.88C34.5111 3.88 34.8178 3.90667 35.1244 3.96C35.4444 4.01333 35.7311 4.11333 35.9844 4.26C36.2511 4.39333 36.4644 4.58 36.6244 4.82C36.7844 5.06 36.8644 5.37333 36.8644 5.76V11.98H38.0444V13H33.7044V5.12L33.6444 5.1C33.6178 5.08667 33.5778 5.08 33.5244 5.08C33.4711 5.06667 33.3911 5.06 33.2844 5.06C33.0578 5.06 32.8444 5.12 32.6444 5.24C32.4578 5.36 32.2844 5.5 32.1244 5.66C31.9778 5.80667 31.8511 5.96 31.7444 6.12C31.6378 6.26667 31.5644 6.37333 31.5244 6.44V11.98H32.7044V13H28.3644V5.12L28.3044 5.1C28.2778 5.08667 28.2378 5.08 28.1844 5.08C28.1311 5.06667 28.0511 5.06 27.9444 5.06C27.7178 5.06 27.5044 5.12 27.3044 5.24C27.1178 5.36 26.9444 5.5 26.7844 5.66C26.6378 5.80667 26.5111 5.96 26.4044 6.12C26.2978 6.26667 26.2244 6.37333 26.1844 6.44V11.98H27.3644V13H21.8444V11.98H23.0244V5.38H21.8444V4.38ZM43.3138 3.92C43.6205 3.92 43.9005 3.94667 44.1538 4C44.4072 4.04 44.6338 4.09333 44.8338 4.16L46.1738 3.86V6.94C45.6672 6.94 45.2472 6.86667 44.9138 6.72C44.5938 6.56 44.3338 6.37333 44.1338 6.16C43.9338 5.93333 43.7805 5.7 43.6738 5.46C43.5805 5.20667 43.5138 4.99333 43.4738 4.82H43.3138C43.1938 4.82 43.0872 4.82667 42.9938 4.84C42.9138 4.84 42.8405 4.84667 42.7738 4.86C42.7072 4.87333 42.6538 4.88667 42.6138 4.9C42.5738 4.95333 42.5405 5.02 42.5138 5.1C42.4872 5.16667 42.4672 5.26 42.4538 5.38C42.4405 5.5 42.4338 5.64 42.4338 5.8C42.4338 6.05333 42.4605 6.26 42.5138 6.42C42.5672 6.58 42.6472 6.71333 42.7538 6.82C42.8738 6.92667 43.0272 7.01333 43.2138 7.08C43.4005 7.14667 43.6338 7.22 43.9138 7.3C44.2738 7.39333 44.6272 7.51333 44.9738 7.66C45.3338 7.79333 45.6538 7.97333 45.9338 8.2C46.2138 8.42667 46.4405 8.71333 46.6138 9.06C46.8005 9.39333 46.8938 9.8 46.8938 10.28C46.8938 10.8133 46.8005 11.2667 46.6138 11.64C46.4272 12 46.1605 12.2933 45.8138 12.52C45.4805 12.7467 45.0605 12.9067 44.5538 13C44.0605 13.1067 43.5072 13.16 42.8938 13.16C42.3872 13.16 41.9605 13.1333 41.6138 13.08C41.2805 13.04 41.0138 12.9867 40.8138 12.92L39.4338 13.22V9.94C39.9272 9.94 40.3405 10.0267 40.6738 10.2C41.0072 10.3733 41.2738 10.58 41.4738 10.82C41.6738 11.06 41.8205 11.3133 41.9138 11.58C42.0072 11.8333 42.0738 12.0533 42.1138 12.24C42.1938 12.2533 42.2672 12.26 42.3338 12.26H42.9138C43.0338 12.26 43.1405 12.2533 43.2338 12.24C43.3405 12.2267 43.4405 12.2133 43.5338 12.2C43.5605 12.1467 43.5872 12.0733 43.6138 11.98C43.6405 11.9 43.6605 11.7933 43.6738 11.66C43.7005 11.5267 43.7138 11.3667 43.7138 11.18C43.7138 10.7933 43.6005 10.4867 43.3738 10.26C43.1605 10.0333 42.8872 9.84667 42.5538 9.7C42.2205 9.54 41.8605 9.39333 41.4738 9.26C41.1005 9.11333 40.7472 8.94 40.4138 8.74C40.0805 8.52667 39.8005 8.25333 39.5738 7.92C39.3605 7.57333 39.2538 7.11333 39.2538 6.54C39.2538 6.14 39.3205 5.78 39.4538 5.46C39.6005 5.12667 39.8272 4.84667 40.1338 4.62C40.4538 4.39333 40.8738 4.22 41.3938 4.1C41.9138 3.98 42.5538 3.92 43.3138 3.92ZM47.7944 4.38H48.9744L51.9944 3.8V11.9C52.0211 11.9133 52.0611 11.9267 52.1144 11.94C52.1678 11.9533 52.3144 11.96 52.5544 11.96C52.8344 11.96 53.0811 11.9067 53.2944 11.8C53.5078 11.68 53.6944 11.5467 53.8544 11.4C54.0144 11.2533 54.1478 11.1067 54.2544 10.96C54.3611 10.8133 54.4344 10.7 54.4744 10.62V4.02H57.6344V12H57.8944C58.0144 12 58.1344 11.9933 58.2544 11.98L58.6944 11.94V12.9C58.4544 12.94 58.2211 12.9733 57.9944 13C57.8078 13.0267 57.6078 13.0467 57.3944 13.06C57.1811 13.0733 57.0078 13.08 56.8744 13.08C56.5278 13.08 56.2278 13.0467 55.9744 12.98C55.7211 12.9 55.5011 12.8 55.3144 12.68C55.1411 12.56 54.9944 12.4267 54.8744 12.28C54.7544 12.12 54.6678 11.9667 54.6144 11.82C54.5878 11.86 54.5144 11.9533 54.3944 12.1C54.2744 12.2467 54.0878 12.4 53.8344 12.56C53.5944 12.7067 53.2811 12.84 52.8944 12.96C52.5211 13.08 52.0544 13.14 51.4944 13.14C51.1878 13.14 50.8744 13.1133 50.5544 13.06C50.2478 13.0067 49.9611 12.9133 49.6944 12.78C49.4411 12.6333 49.2344 12.44 49.0744 12.2C48.9144 11.96 48.8344 11.6467 48.8344 11.26V5.38H47.7944V4.38ZM59.696 4.38H60.876L63.896 3.8V5.2C63.9227 5.16 63.996 5.06667 64.116 4.92C64.236 4.77333 64.416 4.62667 64.656 4.48C64.896 4.32 65.2093 4.18 65.596 4.06C65.9827 3.94 66.456 3.88 67.016 3.88C67.3227 3.88 67.6293 3.90667 67.936 3.96C68.256 4.01333 68.5427 4.11333 68.796 4.26C69.0627 4.39333 69.276 4.58 69.436 4.82C69.596 5.06 69.676 5.37333 69.676 5.76V11.98H70.856V13H66.516V5.12C66.4893 5.12 66.4493 5.11333 66.396 5.1C66.2893 5.07333 66.1427 5.06 65.956 5.06C65.676 5.06 65.4227 5.12 65.196 5.24C64.9827 5.34667 64.796 5.47333 64.636 5.62C64.476 5.76667 64.3427 5.92 64.236 6.08C64.1427 6.22667 64.076 6.34 64.036 6.42V11.98H65.216V13H59.696V11.98H60.876V5.38H59.696V4.38ZM78.6868 15.28H79.4868C79.9268 15.28 80.2001 15.2333 80.3068 15.14C80.4268 15.06 80.4868 14.9133 80.4868 14.7V14.4H75.3468C74.7068 14.4 74.1668 14.3467 73.7268 14.24C73.2868 14.1467 72.9335 13.9933 72.6668 13.78C72.4135 13.58 72.2268 13.32 72.1068 13C72.0001 12.6667 71.9468 12.2733 71.9468 11.82C71.9468 11.4733 71.9935 11.1733 72.0868 10.92C72.1801 10.6667 72.2935 10.4533 72.4268 10.28C72.5735 10.1067 72.7268 9.96667 72.8868 9.86C73.0601 9.75333 73.2201 9.67333 73.3668 9.62C72.9401 9.38 72.6335 9.05333 72.4468 8.64C72.2735 8.21333 72.1868 7.68 72.1868 7.04C72.1868 6.46667 72.2601 5.98 72.4068 5.58C72.5668 5.16667 72.8201 4.84 73.1668 4.6C73.5135 4.34667 73.9668 4.16667 74.5268 4.06C75.0868 3.94 75.7735 3.88 76.5868 3.88H78.9868C79.3201 3.88 79.5801 3.85333 79.7668 3.8C79.9668 3.74667 80.1135 3.66667 80.2068 3.56C80.3001 3.44 80.3535 3.3 80.3668 3.14C80.3935 2.96667 80.4068 2.76 80.4068 2.52H81.4868C81.4868 3.24 81.3735 3.76 81.1468 4.08C80.9201 4.4 80.5935 4.62 80.1668 4.74C80.7135 5.23333 80.9868 6 80.9868 7.04C80.9868 7.62667 80.9068 8.12 80.7468 8.52C80.6001 8.92 80.3535 9.24667 80.0068 9.5C79.6601 9.74 79.2068 9.92 78.6468 10.04C78.0868 10.1467 77.4001 10.2 76.5868 10.2C75.7201 10.2 75.0001 10.14 74.4268 10.02C74.2668 10.06 74.1001 10.12 73.9268 10.2C73.7668 10.2667 73.6135 10.36 73.4668 10.48C73.3201 10.5867 73.2001 10.7133 73.1068 10.86C73.0135 11.0067 72.9668 11.1733 72.9668 11.36H78.7668C79.8735 11.36 80.6535 11.5667 81.1068 11.98C81.5735 12.38 81.8068 13.0067 81.8068 13.86C81.8068 14.2867 81.7735 14.6533 81.7068 14.96C81.6401 15.2667 81.5201 15.52 81.3468 15.72C81.1868 15.92 80.9535 16.0667 80.6468 16.16C80.3401 16.2667 79.9468 16.32 79.4668 16.32H78.6868V15.28ZM75.4668 7.04C75.4668 7.36 75.4801 7.65333 75.5068 7.92C75.5335 8.18667 75.5668 8.41333 75.6068 8.6C75.6468 8.82667 75.6935 9.03333 75.7468 9.22C75.8135 9.23333 75.8868 9.24667 75.9668 9.26C76.0335 9.27333 76.1135 9.28667 76.2068 9.3C76.3135 9.3 76.4335 9.3 76.5668 9.3C76.7001 9.3 76.8201 9.3 76.9268 9.3C77.0335 9.28667 77.1201 9.27333 77.1868 9.26C77.2668 9.24667 77.3401 9.23333 77.4068 9.22C77.4468 9.03333 77.4935 8.82667 77.5468 8.6C77.5735 8.41333 77.6001 8.18667 77.6268 7.92C77.6668 7.65333 77.6868 7.36 77.6868 7.04C77.6868 6.73333 77.6668 6.44667 77.6268 6.18C77.6001 5.9 77.5735 5.66667 77.5468 5.48C77.4935 5.25333 77.4468 5.04667 77.4068 4.86L77.1668 4.82C77.1001 4.80667 77.0135 4.8 76.9068 4.8C76.8001 4.78667 76.6868 4.78 76.5668 4.78C76.4335 4.78 76.3135 4.78667 76.2068 4.8C76.1135 4.8 76.0335 4.80667 75.9668 4.82C75.8868 4.83333 75.8135 4.84667 75.7468 4.86C75.6935 5.04667 75.6468 5.25333 75.6068 5.48C75.5668 5.66667 75.5335 5.9 75.5068 6.18C75.4801 6.44667 75.4668 6.73333 75.4668 7.04ZM90.8516 0.479999C91.2783 0.479999 91.665 0.513332 92.0116 0.579999C92.3716 0.633332 92.685 0.706666 92.9516 0.8L94.8316 0.42V4.5C93.8716 4.47333 93.0983 4.2 92.5116 3.68C91.925 3.16 91.585 2.44667 91.4916 1.54C91.225 1.48667 90.9116 1.46 90.5516 1.46C90.4183 1.46 90.305 1.46667 90.2116 1.48C90.1316 1.49333 90.0583 1.50667 89.9916 1.52L89.7916 1.56C89.7383 1.66667 89.6916 1.79333 89.6516 1.94C89.625 2.06 89.5983 2.20667 89.5716 2.38C89.545 2.54 89.5316 2.72 89.5316 2.92C89.5316 3.62667 89.685 4.14667 89.9916 4.48C90.3116 4.81333 90.825 5.09333 91.5316 5.32C91.945 5.46667 92.3716 5.65333 92.8116 5.88C93.2516 6.09333 93.6516 6.36 94.0116 6.68C94.385 7 94.685 7.38 94.9116 7.82C95.1516 8.24667 95.2716 8.73333 95.2716 9.28C95.2716 10.6667 94.845 11.6867 93.9916 12.34C93.1383 12.98 91.945 13.3 90.4116 13.3C89.7583 13.3 89.2383 13.26 88.8516 13.18C88.465 13.1133 88.165 13.0467 87.9516 12.98L86.2716 13.3V8.82C86.7916 8.83333 87.2516 8.93333 87.6516 9.12C88.0516 9.29333 88.3916 9.53333 88.6716 9.84C88.9516 10.1467 89.1716 10.5067 89.3316 10.92C89.4916 11.3333 89.585 11.7867 89.6116 12.28C89.7183 12.2933 89.8183 12.3 89.9116 12.3H90.2516C90.385 12.3 90.525 12.3 90.6716 12.3C90.8316 12.2867 90.9783 12.2733 91.1116 12.26C91.2583 12.2467 91.4116 12.2333 91.5716 12.22C91.6116 12.1267 91.6516 12.0067 91.6916 11.86C91.7183 11.74 91.745 11.5867 91.7716 11.4C91.7983 11.2133 91.8116 10.9867 91.8116 10.72C91.8116 10.1333 91.6716 9.66667 91.3916 9.32C91.1116 8.96 90.7583 8.65333 90.3316 8.4C89.905 8.14667 89.445 7.91333 88.9516 7.7C88.4716 7.48667 88.0183 7.23333 87.5916 6.94C87.165 6.64667 86.8116 6.28 86.5316 5.84C86.2516 5.4 86.1116 4.82667 86.1116 4.12C86.1116 3.6 86.1916 3.12 86.3516 2.68C86.5116 2.24 86.7716 1.86 87.1316 1.54C87.505 1.20667 87.9916 0.946666 88.5916 0.759999C89.205 0.573332 89.9583 0.479999 90.8516 0.479999ZM97.4663 3.1L100.626 2.24V4.02H103.026V5.02H100.626V12H101.046C101.82 12 102.206 11.4133 102.206 10.24H103.226C103.226 10.6667 103.2 11.0533 103.146 11.4C103.106 11.7467 102.98 12.0467 102.766 12.3C102.566 12.5533 102.26 12.7467 101.846 12.88C101.446 13.0133 100.886 13.08 100.166 13.08C99.673 13.08 99.253 13.0267 98.9063 12.92C98.5597 12.8 98.2797 12.6467 98.0663 12.46C97.853 12.2733 97.6997 12.0667 97.6063 11.84C97.513 11.6133 97.4663 11.38 97.4663 11.14V3.1ZM107.51 8.54C107.51 9.06 107.523 9.54667 107.55 10C107.59 10.44 107.636 10.82 107.69 11.14C107.743 11.5267 107.803 11.8733 107.87 12.18C107.936 12.2067 108.023 12.2267 108.13 12.24C108.303 12.28 108.556 12.3 108.89 12.3C109.21 12.3 109.463 12.28 109.65 12.24C109.756 12.2267 109.843 12.2067 109.91 12.18C109.976 11.8733 110.036 11.5267 110.09 11.14C110.13 10.82 110.17 10.44 110.21 10C110.25 9.54667 110.27 9.06 110.27 8.54C110.27 8.02 110.25 7.54 110.21 7.1C110.17 6.66 110.13 6.27333 110.09 5.94C110.036 5.56667 109.976 5.22 109.91 4.9C109.83 4.88667 109.736 4.86667 109.63 4.84C109.536 4.82667 109.423 4.81333 109.29 4.8C109.17 4.78667 109.036 4.78 108.89 4.78C108.716 4.78 108.57 4.78667 108.45 4.8C108.33 4.81333 108.223 4.82667 108.13 4.84C108.023 4.86667 107.936 4.88667 107.87 4.9C107.803 5.22 107.743 5.56667 107.69 5.94C107.636 6.27333 107.59 6.66 107.55 7.1C107.523 7.54 107.51 8.02 107.51 8.54ZM104.23 8.54C104.23 7.68667 104.31 6.96667 104.47 6.38C104.63 5.78 104.896 5.3 105.27 4.94C105.643 4.56667 106.123 4.3 106.71 4.14C107.296 3.96667 108.023 3.88 108.89 3.88C109.743 3.88 110.463 3.96667 111.05 4.14C111.65 4.3 112.136 4.56667 112.51 4.94C112.883 5.3 113.15 5.78 113.31 6.38C113.47 6.96667 113.55 7.68667 113.55 8.54C113.55 9.39333 113.47 10.12 113.31 10.72C113.15 11.3067 112.883 11.7867 112.51 12.16C112.136 12.52 111.65 12.7867 111.05 12.96C110.463 13.12 109.743 13.2 108.89 13.2C108.023 13.2 107.296 13.12 106.71 12.96C106.123 12.7867 105.643 12.52 105.27 12.16C104.896 11.7867 104.63 11.3067 104.47 10.72C104.31 10.12 104.23 9.39333 104.23 8.54ZM113.757 4.02H117.937L120.517 9.16L122.317 5.04H120.717V4.02H124.877V5.04H123.477L119.797 13.6H119.377L114.837 5.04H113.757V4.02ZM129.629 3.88C130.362 3.88 130.969 3.95333 131.449 4.1C131.929 4.23333 132.316 4.45333 132.609 4.76C132.902 5.06667 133.109 5.47333 133.229 5.98C133.349 6.47333 133.409 7.08667 133.409 7.82C133.409 8.04667 133.402 8.24667 133.389 8.42C133.376 8.58 133.362 8.71333 133.349 8.82C133.336 8.95333 133.322 9.05333 133.309 9.12H128.369C128.382 9.57333 128.409 9.98667 128.449 10.36C128.489 10.72 128.529 11.0333 128.569 11.3C128.622 11.62 128.676 11.9 128.729 12.14C128.769 12.1667 128.829 12.1867 128.909 12.2C128.976 12.2133 129.069 12.2267 129.189 12.24C129.322 12.24 129.489 12.24 129.689 12.24C130.022 12.24 130.336 12.22 130.629 12.18C130.936 12.1267 131.202 12.0467 131.429 11.94C131.656 11.8333 131.829 11.6867 131.949 11.5C132.082 11.3 132.149 11.06 132.149 10.78H133.229C133.229 11.34 133.102 11.78 132.849 12.1C132.609 12.42 132.302 12.6667 131.929 12.84C131.569 13 131.176 13.1 130.749 13.14C130.322 13.18 129.922 13.2 129.549 13.2C128.736 13.2 128.042 13.12 127.469 12.96C126.909 12.7867 126.449 12.52 126.089 12.16C125.742 11.7867 125.489 11.3067 125.329 10.72C125.169 10.12 125.089 9.39333 125.089 8.54C125.089 7.68667 125.156 6.96667 125.289 6.38C125.436 5.78 125.682 5.3 126.029 4.94C126.376 4.56667 126.836 4.3 127.409 4.14C127.996 3.96667 128.736 3.88 129.629 3.88ZM128.729 4.9C128.662 5.19333 128.602 5.51333 128.549 5.86C128.509 6.16667 128.469 6.52667 128.429 6.94C128.389 7.34 128.369 7.78 128.369 8.26H130.309C130.282 7.7 130.249 7.21333 130.209 6.8C130.169 6.37333 130.122 6.02 130.069 5.74C130.016 5.40667 129.956 5.12667 129.889 4.9C129.849 4.88667 129.802 4.86667 129.749 4.84C129.696 4.82667 129.629 4.81333 129.549 4.8C129.482 4.78667 129.402 4.78 129.309 4.78C129.216 4.78 129.136 4.78667 129.069 4.8C129.002 4.81333 128.942 4.82667 128.889 4.84C128.836 4.86667 128.782 4.88667 128.729 4.9ZM149.779 0.7V4.48C149.125 4.48 148.599 4.38667 148.199 4.2C147.812 4 147.505 3.76667 147.279 3.5C147.065 3.23333 146.919 2.95333 146.839 2.66C146.759 2.35333 146.712 2.08667 146.699 1.86H145.579V11.84H147.359V13H140.439V11.84H142.219V1.86H141.079C141.065 2.08667 141.019 2.35333 140.939 2.66C140.872 2.95333 140.725 3.23333 140.499 3.5C140.285 3.76667 139.979 4 139.579 4.2C139.179 4.38667 138.659 4.48 138.019 4.48V0.7H149.779ZM153.271 8.54C153.271 9.06 153.285 9.54667 153.311 10C153.351 10.44 153.398 10.82 153.451 11.14C153.505 11.5267 153.565 11.8733 153.631 12.18C153.698 12.2067 153.785 12.2267 153.891 12.24C154.065 12.28 154.318 12.3 154.651 12.3C154.971 12.3 155.225 12.28 155.411 12.24C155.518 12.2267 155.605 12.2067 155.671 12.18C155.738 11.8733 155.798 11.5267 155.851 11.14C155.891 10.82 155.931 10.44 155.971 10C156.011 9.54667 156.031 9.06 156.031 8.54C156.031 8.02 156.011 7.54 155.971 7.1C155.931 6.66 155.891 6.27333 155.851 5.94C155.798 5.56667 155.738 5.22 155.671 4.9C155.591 4.88667 155.498 4.86667 155.391 4.84C155.298 4.82667 155.185 4.81333 155.051 4.8C154.931 4.78667 154.798 4.78 154.651 4.78C154.478 4.78 154.331 4.78667 154.211 4.8C154.091 4.81333 153.985 4.82667 153.891 4.84C153.785 4.86667 153.698 4.88667 153.631 4.9C153.565 5.22 153.505 5.56667 153.451 5.94C153.398 6.27333 153.351 6.66 153.311 7.1C153.285 7.54 153.271 8.02 153.271 8.54ZM149.991 8.54C149.991 7.68667 150.071 6.96667 150.231 6.38C150.391 5.78 150.658 5.3 151.031 4.94C151.405 4.56667 151.885 4.3 152.471 4.14C153.058 3.96667 153.785 3.88 154.651 3.88C155.505 3.88 156.225 3.96667 156.811 4.14C157.411 4.3 157.898 4.56667 158.271 4.94C158.645 5.3 158.911 5.78 159.071 6.38C159.231 6.96667 159.311 7.68667 159.311 8.54C159.311 9.39333 159.231 10.12 159.071 10.72C158.911 11.3067 158.645 11.7867 158.271 12.16C157.898 12.52 157.411 12.7867 156.811 12.96C156.225 13.12 155.505 13.2 154.651 13.2C153.785 13.2 153.058 13.12 152.471 12.96C151.885 12.7867 151.405 12.52 151.031 12.16C150.658 11.7867 150.391 11.3067 150.231 10.72C150.071 10.12 149.991 9.39333 149.991 8.54ZM160.514 4.38H161.694L164.714 3.8V5.06C165.101 4.7 165.527 4.42 165.994 4.22C166.461 4.00667 166.954 3.9 167.474 3.9C168.021 3.9 168.507 3.98667 168.934 4.16C169.361 4.32 169.714 4.58667 169.994 4.96C170.287 5.32 170.507 5.8 170.654 6.4C170.801 6.98667 170.874 7.7 170.874 8.54C170.874 9.39333 170.794 10.12 170.634 10.72C170.474 11.3067 170.207 11.7867 169.834 12.16C169.461 12.52 168.974 12.78 168.374 12.94C167.787 13.1 167.067 13.18 166.214 13.18C165.974 13.18 165.741 13.1667 165.514 13.14C165.287 13.1133 165.067 13.0867 164.854 13.06V16.3H160.514V15.28H161.694V5.38H160.514V4.38ZM167.234 4.98C166.794 4.98 166.367 5.12 165.954 5.4C165.541 5.68 165.174 6.02667 164.854 6.44V12.1C165.081 12.1667 165.314 12.2133 165.554 12.24C165.794 12.2667 166.014 12.28 166.214 12.28C166.534 12.28 166.787 12.26 166.974 12.22C167.081 12.2067 167.167 12.1867 167.234 12.16C167.301 11.8533 167.361 11.5133 167.414 11.14C167.454 10.82 167.494 10.44 167.534 10C167.574 9.54667 167.594 9.06 167.594 8.54C167.594 7.9 167.574 7.36 167.534 6.92C167.494 6.46667 167.454 6.09333 167.414 5.8C167.361 5.45333 167.301 5.18 167.234 4.98ZM48.6031 21.7C48.7498 21.7 48.9098 21.7 49.0831 21.7C49.2565 21.6867 49.4165 21.68 49.5631 21.68C49.7231 21.68 49.8565 21.68 49.9631 21.68C50.0831 21.6667 50.1631 21.66 50.2031 21.66C51.9231 21.66 53.1965 21.94 54.0231 22.5C54.8498 23.06 55.2631 24.02 55.2631 25.38C55.2631 26.7267 54.8498 27.68 54.0231 28.24C53.2098 28.8 51.9365 29.08 50.2031 29.08H49.6431C49.4431 29.08 49.2365 29.0733 49.0231 29.06V32.84H50.8031V34H43.8831V32.84H45.6631V22.86H43.8831V21.7H48.6031ZM50.2031 22.68C49.9765 22.68 49.7631 22.6867 49.5631 22.7C49.3631 22.7133 49.1831 22.7333 49.0231 22.76V27.96C49.3565 28 49.7498 28.02 50.2031 28.02C50.5098 28.02 50.7565 28 50.9431 27.96C51.0498 27.9467 51.1431 27.9267 51.2231 27.9C51.2765 27.7133 51.3298 27.5 51.3831 27.26C51.4231 27.0467 51.4565 26.7867 51.4831 26.48C51.5231 26.16 51.5431 25.8 51.5431 25.4C51.5431 24.9867 51.5231 24.62 51.4831 24.3C51.4565 23.98 51.4231 23.7067 51.3831 23.48C51.3298 23.2267 51.2765 23 51.2231 22.8C51.1431 22.7867 51.0498 22.7667 50.9431 22.74C50.8498 22.7267 50.7365 22.7133 50.6031 22.7C50.4831 22.6867 50.3498 22.68 50.2031 22.68ZM56.0534 25.38H57.2334L60.2534 24.8V26.08C60.2668 26.04 60.3134 25.96 60.3934 25.84C60.4868 25.7067 60.6268 25.5733 60.8134 25.44C61.0134 25.2933 61.2668 25.1667 61.5734 25.06C61.8934 24.94 62.2934 24.88 62.7734 24.88C63.0668 24.88 63.2934 24.8867 63.4534 24.9C63.6268 24.9133 63.7601 24.9267 63.8534 24.94C63.9601 24.9533 64.0268 24.9667 64.0534 24.98V28.84C63.5734 28.84 63.1734 28.7467 62.8534 28.56C62.5334 28.3733 62.2734 28.14 62.0734 27.86C61.8734 27.58 61.7201 27.2867 61.6134 26.98C61.5068 26.6733 61.4334 26.4 61.3934 26.16C61.2734 26.2267 61.1601 26.32 61.0534 26.44C60.9468 26.5467 60.8468 26.6667 60.7534 26.8C60.6734 26.92 60.6001 27.04 60.5334 27.16C60.4668 27.2667 60.4201 27.3533 60.3934 27.42V32.98H61.5734V34H56.0534V32.98H57.2334V26.38H56.0534V25.38ZM68.3397 29.54C68.3397 30.06 68.353 30.5467 68.3797 31C68.4197 31.44 68.4663 31.82 68.5197 32.14C68.573 32.5267 68.633 32.8733 68.6997 33.18C68.7663 33.2067 68.853 33.2267 68.9597 33.24C69.133 33.28 69.3863 33.3 69.7197 33.3C70.0397 33.3 70.293 33.28 70.4797 33.24C70.5863 33.2267 70.673 33.2067 70.7397 33.18C70.8063 32.8733 70.8663 32.5267 70.9197 32.14C70.9597 31.82 70.9997 31.44 71.0397 31C71.0797 30.5467 71.0997 30.06 71.0997 29.54C71.0997 29.02 71.0797 28.54 71.0397 28.1C70.9997 27.66 70.9597 27.2733 70.9197 26.94C70.8663 26.5667 70.8063 26.22 70.7397 25.9C70.6597 25.8867 70.5663 25.8667 70.4597 25.84C70.3663 25.8267 70.253 25.8133 70.1197 25.8C69.9997 25.7867 69.8663 25.78 69.7197 25.78C69.5463 25.78 69.3997 25.7867 69.2797 25.8C69.1597 25.8133 69.053 25.8267 68.9597 25.84C68.853 25.8667 68.7663 25.8867 68.6997 25.9C68.633 26.22 68.573 26.5667 68.5197 26.94C68.4663 27.2733 68.4197 27.66 68.3797 28.1C68.353 28.54 68.3397 29.02 68.3397 29.54ZM65.0597 29.54C65.0597 28.6867 65.1397 27.9667 65.2997 27.38C65.4597 26.78 65.7263 26.3 66.0997 25.94C66.473 25.5667 66.953 25.3 67.5397 25.14C68.1263 24.9667 68.853 24.88 69.7197 24.88C70.573 24.88 71.293 24.9667 71.8797 25.14C72.4797 25.3 72.9663 25.5667 73.3397 25.94C73.713 26.3 73.9797 26.78 74.1397 27.38C74.2997 27.9667 74.3797 28.6867 74.3797 29.54C74.3797 30.3933 74.2997 31.12 74.1397 31.72C73.9797 32.3067 73.713 32.7867 73.3397 33.16C72.9663 33.52 72.4797 33.7867 71.8797 33.96C71.293 34.12 70.573 34.2 69.7197 34.2C68.853 34.2 68.1263 34.12 67.5397 33.96C66.953 33.7867 66.473 33.52 66.0997 33.16C65.7263 32.7867 65.4597 32.3067 65.2997 31.72C65.1397 31.12 65.0597 30.3933 65.0597 29.54ZM76.3823 24.1L79.5423 23.24V25.02H81.9423V26.02H79.5423V33H79.9623C80.7357 33 81.1223 32.4133 81.1223 31.24H82.1423C82.1423 31.6667 82.1157 32.0533 82.0623 32.4C82.0223 32.7467 81.8957 33.0467 81.6823 33.3C81.4823 33.5533 81.1757 33.7467 80.7623 33.88C80.3623 34.0133 79.8023 34.08 79.0823 34.08C78.589 34.08 78.169 34.0267 77.8223 33.92C77.4757 33.8 77.1957 33.6467 76.9823 33.46C76.769 33.2733 76.6157 33.0667 76.5223 32.84C76.429 32.6133 76.3823 32.38 76.3823 32.14V24.1ZM87.6856 24.88C88.419 24.88 89.0256 24.9533 89.5056 25.1C89.9856 25.2333 90.3723 25.4533 90.6656 25.76C90.959 26.0667 91.1656 26.4733 91.2856 26.98C91.4056 27.4733 91.4656 28.0867 91.4656 28.82C91.4656 29.0467 91.459 29.2467 91.4456 29.42C91.4323 29.58 91.419 29.7133 91.4056 29.82C91.3923 29.9533 91.379 30.0533 91.3656 30.12H86.4256C86.439 30.5733 86.4656 30.9867 86.5056 31.36C86.5456 31.72 86.5856 32.0333 86.6256 32.3C86.679 32.62 86.7323 32.9 86.7856 33.14C86.8256 33.1667 86.8856 33.1867 86.9656 33.2C87.0323 33.2133 87.1256 33.2267 87.2456 33.24C87.379 33.24 87.5456 33.24 87.7456 33.24C88.079 33.24 88.3923 33.22 88.6856 33.18C88.9923 33.1267 89.259 33.0467 89.4856 32.94C89.7123 32.8333 89.8856 32.6867 90.0056 32.5C90.139 32.3 90.2056 32.06 90.2056 31.78H91.2856C91.2856 32.34 91.159 32.78 90.9056 33.1C90.6656 33.42 90.359 33.6667 89.9856 33.84C89.6256 34 89.2323 34.1 88.8056 34.14C88.379 34.18 87.979 34.2 87.6056 34.2C86.7923 34.2 86.099 34.12 85.5256 33.96C84.9656 33.7867 84.5056 33.52 84.1456 33.16C83.799 32.7867 83.5456 32.3067 83.3856 31.72C83.2256 31.12 83.1456 30.3933 83.1456 29.54C83.1456 28.6867 83.2123 27.9667 83.3456 27.38C83.4923 26.78 83.739 26.3 84.0856 25.94C84.4323 25.5667 84.8923 25.3 85.4656 25.14C86.0523 24.9667 86.7923 24.88 87.6856 24.88ZM86.7856 25.9C86.719 26.1933 86.659 26.5133 86.6056 26.86C86.5656 27.1667 86.5256 27.5267 86.4856 27.94C86.4456 28.34 86.4256 28.78 86.4256 29.26H88.3656C88.339 28.7 88.3056 28.2133 88.2656 27.8C88.2256 27.3733 88.179 27.02 88.1256 26.74C88.0723 26.4067 88.0123 26.1267 87.9456 25.9C87.9056 25.8867 87.859 25.8667 87.8056 25.84C87.7523 25.8267 87.6856 25.8133 87.6056 25.8C87.539 25.7867 87.459 25.78 87.3656 25.78C87.2723 25.78 87.1923 25.7867 87.1256 25.8C87.059 25.8133 86.999 25.8267 86.9456 25.84C86.8923 25.8667 86.839 25.8867 86.7856 25.9ZM100.292 28.1C99.7322 28.1 99.2788 28.0067 98.9322 27.82C98.5988 27.62 98.3322 27.3933 98.1322 27.14C97.9322 26.8867 97.7922 26.6333 97.7122 26.38C97.6322 26.1133 97.5855 25.9133 97.5722 25.78H97.0922C96.9988 25.78 96.9188 25.7867 96.8522 25.8C96.7855 25.8133 96.7255 25.8267 96.6722 25.84C96.6188 25.8667 96.5655 25.8867 96.5122 25.9C96.4455 26.22 96.3855 26.5667 96.3322 26.94C96.2788 27.26 96.2322 27.6467 96.1922 28.1C96.1655 28.54 96.1522 29.02 96.1522 29.54C96.1522 30.06 96.1655 30.54 96.1922 30.98C96.2322 31.42 96.2788 31.8 96.3322 32.12C96.3855 32.4933 96.4455 32.8333 96.5122 33.14C96.5655 33.1667 96.6388 33.1867 96.7322 33.2C96.7988 33.2133 96.8922 33.2267 97.0122 33.24C97.1322 33.24 97.2788 33.24 97.4522 33.24C97.7455 33.24 98.0255 33.2133 98.2922 33.16C98.5588 33.1067 98.7855 33.0133 98.9722 32.88C99.1722 32.7333 99.3255 32.54 99.4322 32.3C99.5522 32.06 99.6122 31.7533 99.6122 31.38H100.572C100.572 32.02 100.466 32.5267 100.252 32.9C100.039 33.2733 99.7655 33.56 99.4322 33.76C99.1122 33.9467 98.7588 34.0667 98.3722 34.12C97.9988 34.1733 97.6522 34.2 97.3322 34.2C96.5188 34.2 95.8255 34.12 95.2522 33.96C94.6922 33.7867 94.2322 33.52 93.8722 33.16C93.5255 32.7867 93.2722 32.3067 93.1122 31.72C92.9522 31.12 92.8722 30.3933 92.8722 29.54C92.8722 28.6867 92.9388 27.9667 93.0722 27.38C93.2188 26.78 93.4655 26.3 93.8122 25.94C94.1588 25.5667 94.6188 25.3 95.1922 25.14C95.7788 24.9667 96.5188 24.88 97.4122 24.88C97.7322 24.88 98.0588 24.8867 98.3922 24.9C98.7388 24.9133 99.0522 24.9333 99.3322 24.96C99.6655 24.9867 99.9855 25.0067 100.292 25.02V28.1ZM102.378 24.1L105.538 23.24V25.02H107.938V26.02H105.538V33H105.958C106.732 33 107.118 32.4133 107.118 31.24H108.138C108.138 31.6667 108.112 32.0533 108.058 32.4C108.018 32.7467 107.892 33.0467 107.678 33.3C107.478 33.5533 107.172 33.7467 106.758 33.88C106.358 34.0133 105.798 34.08 105.078 34.08C104.585 34.08 104.165 34.0267 103.818 33.92C103.472 33.8 103.192 33.6467 102.978 33.46C102.765 33.2733 102.612 33.0667 102.518 32.84C102.425 32.6133 102.378 32.38 102.378 32.14V24.1ZM112.422 29.54C112.422 30.06 112.435 30.5467 112.462 31C112.502 31.44 112.548 31.82 112.602 32.14C112.655 32.5267 112.715 32.8733 112.782 33.18C112.848 33.2067 112.935 33.2267 113.042 33.24C113.215 33.28 113.468 33.3 113.802 33.3C114.122 33.3 114.375 33.28 114.562 33.24C114.668 33.2267 114.755 33.2067 114.822 33.18C114.888 32.8733 114.948 32.5267 115.002 32.14C115.042 31.82 115.082 31.44 115.122 31C115.162 30.5467 115.182 30.06 115.182 29.54C115.182 29.02 115.162 28.54 115.122 28.1C115.082 27.66 115.042 27.2733 115.002 26.94C114.948 26.5667 114.888 26.22 114.822 25.9C114.742 25.8867 114.648 25.8667 114.542 25.84C114.448 25.8267 114.335 25.8133 114.202 25.8C114.082 25.7867 113.948 25.78 113.802 25.78C113.628 25.78 113.482 25.7867 113.362 25.8C113.242 25.8133 113.135 25.8267 113.042 25.84C112.935 25.8667 112.848 25.8867 112.782 25.9C112.715 26.22 112.655 26.5667 112.602 26.94C112.548 27.2733 112.502 27.66 112.462 28.1C112.435 28.54 112.422 29.02 112.422 29.54ZM109.142 29.54C109.142 28.6867 109.222 27.9667 109.382 27.38C109.542 26.78 109.808 26.3 110.182 25.94C110.555 25.5667 111.035 25.3 111.622 25.14C112.208 24.9667 112.935 24.88 113.802 24.88C114.655 24.88 115.375 24.9667 115.962 25.14C116.562 25.3 117.048 25.5667 117.422 25.94C117.795 26.3 118.062 26.78 118.222 27.38C118.382 27.9667 118.462 28.6867 118.462 29.54C118.462 30.3933 118.382 31.12 118.222 31.72C118.062 32.3067 117.795 32.7867 117.422 33.16C117.048 33.52 116.562 33.7867 115.962 33.96C115.375 34.12 114.655 34.2 113.802 34.2C112.935 34.2 112.208 34.12 111.622 33.96C111.035 33.7867 110.555 33.52 110.182 33.16C109.808 32.7867 109.542 32.3067 109.382 31.72C109.222 31.12 109.142 30.3933 109.142 29.54ZM119.764 25.38H120.944L123.964 24.8V26.08C123.978 26.04 124.024 25.96 124.104 25.84C124.198 25.7067 124.338 25.5733 124.524 25.44C124.724 25.2933 124.978 25.1667 125.284 25.06C125.604 24.94 126.004 24.88 126.484 24.88C126.778 24.88 127.004 24.8867 127.164 24.9C127.338 24.9133 127.471 24.9267 127.564 24.94C127.671 24.9533 127.738 24.9667 127.764 24.98V28.84C127.284 28.84 126.884 28.7467 126.564 28.56C126.244 28.3733 125.984 28.14 125.784 27.86C125.584 27.58 125.431 27.2867 125.324 26.98C125.218 26.6733 125.144 26.4 125.104 26.16C124.984 26.2267 124.871 26.32 124.764 26.44C124.658 26.5467 124.558 26.6667 124.464 26.8C124.384 26.92 124.311 27.04 124.244 27.16C124.178 27.2667 124.131 27.3533 124.104 27.42V32.98H125.284V34H119.764V32.98H120.944V26.38H119.764V25.38Z" fill="black"/>
</svg>
