<svg width="14" height="16" viewBox="0 0 14 16" fill="none" xmlns="http://www.w3.org/2000/svg">
<path d="M2.5124 9.72026C3.41614 9.72026 4.14877 9.00392 4.14877 8.12026C4.14877 7.23661 3.41614 6.52026 2.5124 6.52026C1.60866 6.52026 0.876038 7.23661 0.876038 8.12026C0.876038 9.00392 1.60866 9.72026 2.5124 9.72026Z" stroke="#262629" stroke-width="1.5" stroke-linecap="round" stroke-linejoin="round"/>
<path d="M11.2398 4.92022C12.1435 4.92022 12.8762 4.20387 12.8762 3.32021C12.8762 2.43656 12.1435 1.72021 11.2398 1.72021C10.3361 1.72021 9.60343 2.43656 9.60343 3.32021C9.60343 4.20387 10.3361 4.92022 11.2398 4.92022Z" stroke="#262629" stroke-width="1.5" stroke-linecap="round" stroke-linejoin="round"/>
<path d="M11.2397 14.5203C12.1435 14.5203 12.8761 13.804 12.8761 12.9203C12.8761 12.0367 12.1435 11.3203 11.2397 11.3203C10.336 11.3203 9.60338 12.0367 9.60338 12.9203C9.60338 13.804 10.336 14.5203 11.2397 14.5203Z" stroke="#262629" stroke-width="1.5" stroke-linecap="round" stroke-linejoin="round"/>
<path d="M3.93815 8.90449L9.81338 12.1358M9.81338 4.10449L3.93815 7.33583" stroke="#262629" stroke-width="1.5" stroke-linecap="round" stroke-linejoin="round"/>
</svg>
