<svg width="25" height="25" viewBox="0 0 25 25" fill="none" xmlns="http://www.w3.org/2000/svg">
<path d="M22.5033 6.854C21.7333 7.204 20.9033 7.434 20.0433 7.544C20.9233 7.014 21.6033 6.174 21.9233 5.164C21.0933 5.664 20.1733 6.014 19.2033 6.214C18.4133 5.354 17.3033 4.854 16.0433 4.854C13.6933 4.854 11.7733 6.774 11.7733 9.144C11.7733 9.484 11.8133 9.814 11.8833 10.124C8.32328 9.944 5.15328 8.234 3.04328 5.644C2.67328 6.274 2.46328 7.014 2.46328 7.794C2.46328 9.284 3.21328 10.604 4.37328 11.354C3.66328 11.354 3.00328 11.154 2.42328 10.854V10.884C2.42328 12.964 3.90328 14.704 5.86328 15.094C5.23412 15.2669 4.57332 15.2909 3.93328 15.164C4.20489 16.0165 4.73682 16.7624 5.4543 17.2969C6.17178 17.8315 7.03873 18.1277 7.93328 18.144C6.41695 19.3445 4.53729 19.9934 2.60328 19.984C2.26328 19.984 1.92328 19.964 1.58328 19.924C3.48328 21.144 5.74328 21.854 8.16328 21.854C16.0433 21.854 20.3733 15.314 20.3733 9.644C20.3733 9.454 20.3733 9.274 20.3633 9.084C21.2033 8.484 21.9233 7.724 22.5033 6.854Z" fill="white"/>
</svg>
