<svg width="25" height="25" viewBox="0 0 25 25" fill="none" xmlns="http://www.w3.org/2000/svg">
<path d="M10.5433 15.854L15.7333 12.854L10.5433 9.854V15.854ZM22.1033 8.024C22.2333 8.494 22.3233 9.124 22.3833 9.924C22.4533 10.724 22.4833 11.414 22.4833 12.014L22.5433 12.854C22.5433 15.044 22.3833 16.654 22.1033 17.684C21.8533 18.584 21.2733 19.164 20.3733 19.414C19.9033 19.544 19.0433 19.634 17.7233 19.694C16.4233 19.764 15.2333 19.794 14.1333 19.794L12.5433 19.854C8.35327 19.854 5.74327 19.694 4.71327 19.414C3.81327 19.164 3.23327 18.584 2.98327 17.684C2.85327 17.214 2.76327 16.584 2.70327 15.784C2.63327 14.984 2.60327 14.294 2.60327 13.694L2.54327 12.854C2.54327 10.664 2.70327 9.054 2.98327 8.024C3.23327 7.124 3.81327 6.544 4.71327 6.294C5.18327 6.164 6.04327 6.074 7.36327 6.014C8.66327 5.944 9.85327 5.914 10.9533 5.914L12.5433 5.854C16.7333 5.854 19.3433 6.014 20.3733 6.294C21.2733 6.544 21.8533 7.124 22.1033 8.024Z" fill="white"/>
</svg>
