<svg width="21" height="15" viewBox="0 0 21 15" fill="none" xmlns="http://www.w3.org/2000/svg">
<path d="M8.1582 10.151L13.3482 7.15102L8.1582 4.15102V10.151ZM19.7182 2.32102C19.8482 2.79102 19.9382 3.42102 19.9982 4.22102C20.0682 5.02102 20.0982 5.71102 20.0982 6.31102L20.1582 7.15102C20.1582 9.34102 19.9982 10.951 19.7182 11.981C19.4682 12.881 18.8882 13.461 17.9882 13.711C17.5182 13.841 16.6582 13.931 15.3382 13.991C14.0382 14.061 12.8482 14.091 11.7482 14.091L10.1582 14.151C5.9682 14.151 3.3582 13.991 2.3282 13.711C1.4282 13.461 0.848203 12.881 0.598203 11.981C0.468203 11.511 0.378203 10.881 0.318203 10.081C0.248203 9.28102 0.218203 8.59102 0.218203 7.99102L0.158203 7.15102C0.158203 4.96102 0.318203 3.35102 0.598203 2.32102C0.848203 1.42102 1.4282 0.841016 2.3282 0.591016C2.7982 0.461016 3.6582 0.371016 4.9782 0.311016C6.2782 0.241016 7.4682 0.211016 8.5682 0.211016L10.1582 0.151016C14.3482 0.151016 16.9582 0.311016 17.9882 0.591016C18.8882 0.841016 19.4682 1.42102 19.7182 2.32102Z" fill="white"/>
</svg>
